<svg xmlns="http://www.w3.org/2000/svg" xmlns:xlink="http://www.w3.org/1999/xlink" version="1.1" id="Layer_1" x="0px" y="0px" enable-background="new 0 0 496 496" xml:space="preserve" viewBox="64.75 46.64 382.01 436.71">
<path fill="#000000" opacity="1.000000" stroke="none" d=" M304.553741,57.453117   C323.998169,55.148685 343.005096,52.953190 362.005188,50.699860   C372.409576,49.465935 382.794342,48.063782 393.203491,46.873417   C399.360352,46.169334 399.784912,46.745762 398.257874,52.556236   C390.222015,83.133499 382.198730,113.714104 374.112701,144.278107   C373.444183,146.805023 373.095551,149.503845 371.422180,151.675140   C369.440826,152.004547 368.811310,150.370789 367.882324,149.328903   C362.338837,143.111923 356.874756,136.824127 351.329224,130.608963   C346.991577,125.747505 347.004272,125.838593 341.794586,130.031677   C325.013275,143.538284 309.524017,158.392746 295.196503,174.469070   C266.529053,206.635696 242.978882,242.170273 224.503601,281.116760   C207.677628,316.586426 196.322769,353.679932 190.533142,392.490662   C190.214279,394.628143 190.194336,396.808838 189.926178,398.955780   C189.683395,400.899445 189.291367,402.824493 188.948441,404.856689   C186.335129,404.241974 186.951889,402.269257 186.696075,400.814423   C181.982544,374.010956 185.590515,347.731445 192.126465,321.736969   C202.193512,281.698822 220.597351,245.459808 243.099380,211.099991   C268.141876,172.861038 298.586273,139.586578 334.216766,111.008354   C337.725677,108.193939 341.273407,105.419518 344.655853,102.458321   C347.570129,99.906990 349.897003,99.682648 352.565826,102.953316   C355.174133,106.149872 357.875244,109.366859 362.142059,111.973366   C366.640839,98.186401 369.804138,84.235710 373.516815,69.697983   C363.163147,70.747108 353.463989,71.709885 343.769958,72.721626   C339.637085,73.152969 335.504303,73.612038 331.391022,74.196198   C327.789337,74.707718 327.823059,76.553017 329.858887,78.972023   C336.978882,87.432167 336.983917,87.442291 328.229065,94.681931   C275.964569,137.900772 232.528503,188.665680 198.699844,247.452621   C180.133347,279.717194 166.148743,313.810242 161.164551,351.079468   C161.033279,352.061096 160.752289,353.034943 160.427246,353.972961   C160.278824,354.401245 159.852951,354.733368 159.568466,355.089600   C157.670853,354.710815 157.895538,353.177887 157.697845,351.934387   C154.111908,329.379669 157.443832,307.429596 164.167831,285.951874   C176.048462,248.002899 195.911880,214.221375 219.156464,182.239914   C243.939026,148.142349 271.924591,116.998352 303.861389,89.443169   C305.218811,88.271973 306.899475,87.346237 307.667206,85.023102   C301.311859,76.460846 293.083557,69.238052 285.123199,60.640709   C291.958679,58.397667 298.113617,58.390678 304.553741,57.453117  z" data-index="0" style="visibility: visible; opacity: 1;"></path>
<path fill="#000000" opacity="1.000000" stroke="none" d=" M310.153687,332.334595   C282.253479,329.168793 261.986633,315.748535 250.059479,290.541504   C247.080460,284.245605 247.425369,283.932495 253.370819,280.516632   C256.816132,278.537170 260.066406,276.219208 263.429871,274.093811   C263.617584,273.975189 264.037628,274.224152 264.349640,274.305786   C265.020142,275.005768 265.070465,275.912964 264.642029,276.616058   C261.264526,282.159058 263.680145,286.738281 266.952209,291.204132   C267.246796,291.606140 267.480621,292.052155 267.753693,292.470551   C276.621246,306.055695 279.474274,307.441986 295.549255,305.978149   C296.046417,305.932831 296.558014,305.939911 297.037231,305.820129   C300.868164,304.862549 308.038544,288.913086 306.168274,285.353149   C302.760345,278.866302 299.171143,272.473480 295.836060,265.950195   C294.554901,263.444305 292.859528,262.441406 290.042114,262.092896   C285.876099,261.577606 281.411133,261.921631 277.459717,259.301849   C278.749237,254.900711 282.264374,254.941040 285.109009,255.879486   C291.765350,258.075470 296.308105,255.776382 300.037567,250.422592   C301.268005,248.656265 302.581238,246.720825 304.324738,245.575058   C316.979523,237.258759 310.541992,225.999191 309.116516,215.526108   C308.920715,214.087662 307.737427,213.310760 306.381714,212.891724   C304.950500,212.449387 303.525360,211.985397 302.084869,211.575455   C290.118713,208.169968 290.187866,208.165192 288.790192,195.802353   C288.369537,192.081375 290.575989,190.689835 293.400970,189.728943   C300.067749,187.461258 306.990387,186.252243 313.985046,186.089890   C368.681396,184.820343 400.259705,237.443695 385.750153,282.486053   C377.296173,308.729980 348.228851,334.626892 310.153687,332.334595  M346.502930,245.179703   C350.563446,242.579575 354.565002,239.880310 358.706329,237.415970   C361.249634,235.902542 361.573547,234.123611 361.265106,231.212189   C359.936768,218.673813 354.461548,209.608612 341.769867,205.972321   C341.613342,205.927490 341.466034,205.833618 341.328735,205.741287   C335.355652,201.723557 330.026154,201.629562 323.696259,206.134796   C312.436066,214.149048 314.989227,210.064713 316.058472,222.809738   C316.847748,232.217957 321.048920,237.275208 329.629822,239.730881   C335.137115,241.306946 339.543915,246.017288 346.502930,245.179703  M361.122253,290.660675   C363.553253,289.215607 365.900818,287.599457 368.434235,286.364471   C372.522156,284.371704 374.751160,281.477661 375.123108,276.745636   C375.577942,270.958740 376.634064,265.213806 377.553345,259.470490   C378.183197,255.535263 377.041901,252.568207 374.099426,249.721008   C364.695038,240.621185 364.793182,240.508652 353.872406,247.306030   C352.461975,248.183929 351.106720,249.153534 349.753052,250.118713   C348.348633,251.120102 347.444916,252.377991 347.219055,254.203445   C346.301147,261.622833 345.148315,269.015167 344.344818,276.445892   C343.848785,281.032990 353.982727,291.655670 358.601807,291.653473   C359.222687,291.653198 359.843353,291.219330 361.122253,290.660675  M340.404175,314.964264   C343.951660,314.187469 345.968994,311.930267 347.531219,308.668365   C353.436371,296.338531 353.487885,296.433533 343.078644,287.406952   C340.980438,285.587433 338.922089,284.978180 336.247528,285.502472   C329.399170,286.845001 322.538300,288.141052 315.648865,289.246552   C313.574829,289.579346 312.336731,290.490845 311.504578,292.299744   C309.418396,296.834595 307.279236,301.345032 305.179565,305.873688   C304.621887,307.076447 304.067322,308.232269 304.835358,309.645691   C307.738312,314.987946 318.652252,320.299835 324.680756,318.997314   C329.714691,317.909729 334.678223,316.496185 340.404175,314.964264  M272.092743,308.510712   C266.270050,301.390747 262.091797,293.055695 256.064056,286.081482   C258.881775,295.381012 263.606262,303.302948 272.092743,308.510712  z" data-index="1" style="visibility: visible; opacity: 1;"></path>
<path fill="#000000" opacity="1.000000" stroke="none" d=" M93.821609,165.861755   C124.898956,117.512062 168.359512,88.411819 224.793045,79.070328   C251.187424,74.701248 290.389771,77.365692 298.167450,83.996513   C293.665466,89.551117 288.224701,94.201591 282.675598,98.532425   C279.498138,101.012306 275.210907,98.505920 271.500885,98.099152   C233.727280,93.957512 198.401398,101.371254 166.383133,121.731941   C120.644279,150.817642 93.460236,192.293091 86.155746,246.345749   C85.932732,247.996033 85.617416,249.635544 85.442535,251.290359   C84.780586,257.554077 85.202621,258.220154 91.414124,258.534027   C94.215019,258.675568 95.402077,259.719849 95.272537,262.426575   C95.264587,262.592682 95.269997,262.759888 95.277451,262.926208   C95.969002,278.363983 95.969055,278.363892 80.373062,278.335083   C79.040375,278.332611 77.707405,278.350220 76.375053,278.328430   C63.358791,278.115570 64.837090,280.165894 64.775383,266.472168   C64.612114,230.244644 74.347252,196.823410 93.821609,165.861755  z" data-index="2" style="visibility: visible;"></path>
<path fill="#000000" opacity="1.000000" stroke="none" d=" M208.089020,431.790649   C199.959549,416.638489 195.218704,401.367767 201.568741,384.612915   C208.218185,367.068085 220.848526,356.302887 239.306427,353.576996   C257.252777,350.926605 272.529633,356.896088 283.985168,371.232483   C297.676483,388.366913 297.861084,406.897675 288.726532,426.042419   C281.722443,440.722076 271.956543,453.594604 261.700165,466.096466   C257.082642,471.724915 252.220901,477.153046 246.892044,483.343445   C232.039001,467.186493 218.789612,450.705109 208.089020,431.790649  M222.523102,386.060547   C215.600906,397.774567 217.040039,412.187164 226.020187,421.082672   C235.333038,430.307800 249.617996,432.342957 260.566589,426.004456   C271.944031,419.417755 277.435455,405.948700 273.556641,393.318146   C270.304657,382.728851 263.034576,375.796234 252.245499,373.665527   C240.230270,371.292694 230.310745,375.577545 222.523102,386.060547  z" data-index="3" style="opacity: 1;"></path>
<path fill="#000000" opacity="1.000000" stroke="none" d=" M404.199677,387.167847   C371.811310,425.805267 331.534882,449.438293 281.160461,455.204803   C285.279053,448.170563 289.356354,441.393494 293.249054,434.507812   C294.163330,432.890533 296.055969,432.873322 297.640991,432.441681   C355.754761,416.616272 395.548309,380.498688 416.996307,324.287964   C422.785126,309.116730 425.157745,293.139618 426.551239,277.010925   C426.875244,273.260956 424.651764,272.771393 421.915497,273.006775   C416.943237,273.434448 414.976959,271.460358 415.486694,266.379974   C415.798340,263.273560 415.210266,260.074768 415.002808,256.919006   C414.811584,254.010269 416.135376,252.789871 419.061249,252.522736   C426.548187,251.839157 434.040436,252.246262 441.527740,252.084854   C445.301849,252.003510 446.187866,254.184448 446.393524,257.497620   C448.274750,287.807526 443.023895,316.806580 430.550354,344.481842   C423.674408,359.737640 414.874115,373.828125 404.199677,387.167847  z" data-index="4" style="opacity: 1;"></path>
<path fill="#000000" opacity="1.000000" stroke="none" d=" M79.485397,342.405762   C72.565025,326.526184 68.561417,310.249268 66.118034,293.542267   C65.243980,287.565704 65.729919,286.968658 71.888519,286.947083   C85.342438,286.899872 85.021057,286.958984 87.458397,300.216461   C92.878098,329.696045 105.530609,355.833496 125.263863,378.384125   C144.130859,399.944794 167.007080,415.944580 193.766632,426.300354   C195.349426,426.912872 196.802673,427.528198 197.675446,429.154694   C201.371094,436.041809 204.708908,443.138123 209.436798,449.432495   C209.765625,449.870331 209.657410,450.636475 209.864487,451.973236   C188.859711,447.983795 170.149414,439.598480 152.695984,428.521423   C119.573982,407.500092 95.126587,378.893738 79.485397,342.405762  z" data-index="5" style="visibility: visible;"></path>
<path fill="#000000" opacity="1.000000" stroke="none" d=" M394.872925,168.111481   C390.977844,163.101547 387.269714,158.398331 383.605499,153.661163   C382.515869,152.252533 380.865265,151.017761 381.421509,148.887787   C383.047211,142.662582 384.725647,136.451172 386.349762,130.360596   C389.553314,129.987701 390.740997,132.067947 392.144897,133.540787   C415.200165,157.728912 431.565887,185.713730 440.142395,218.136246   C441.972961,225.056656 443.414032,232.031738 444.461823,239.109543   C444.915894,242.176682 443.951233,243.562729 440.824219,243.306549   C440.658997,243.292999 440.490906,243.318268 440.325073,243.308823   C435.524963,243.035690 429.848358,245.115311 426.153320,242.532959   C422.557892,240.020203 423.556824,234.002533 422.481812,229.544327   C417.153839,207.448578 407.959503,187.104965 394.872925,168.111481  z" data-index="6" style="visibility: visible;"></path>
<path fill="#000000" opacity="1.000000" stroke="none" d=" M182.593475,175.381851   C175.772995,185.426773 178.024628,183.896973 168.048935,180.116791   C164.935028,178.936798 161.873840,177.595901 158.707352,176.582184   C155.027298,175.404053 154.894485,173.564346 157.020035,170.719711   C173.723694,148.365082 196.145859,138.225647 223.789169,140.274490   C228.803848,140.646164 234.308289,141.470871 239.004684,143.920151   C239.278168,146.651871 237.263000,147.747620 236.135895,149.248840   C233.137909,153.241928 229.613586,156.868958 226.873474,161.020966   C219.532974,172.143814 208.376556,172.650833 196.843811,172.356247   C195.321304,172.317383 193.654266,172.016724 193.067917,170.426849   C192.453568,168.761002 193.862900,167.660507 194.881134,166.595795   C202.455750,158.675491 211.308685,152.561020 221.238586,147.960083   C222.818146,147.228226 224.827118,147.081238 225.787201,144.822433   C222.396423,143.629059 219.475937,144.923935 216.788345,146.347366   C207.351654,151.345383 198.133820,156.665329 191.179504,165.108002   C188.305649,168.596924 186.167679,168.018051 184.437119,163.768723   C182.921265,160.046570 185.295959,156.659454 185.246872,153.002884   C179.749588,154.983673 178.415649,161.942078 182.298904,168.419022   C183.649216,170.671219 185.124985,172.655121 182.593475,175.381851  z" data-index="7" style="visibility: visible;"></path>
<path fill="#000000" opacity="1.000000" stroke="none" d=" M147.794601,238.983490   C140.931076,220.041641 142.067947,201.787842 149.538773,183.653244   C151.427277,179.069122 154.028961,177.887833 158.407990,179.861389   C162.654953,181.775421 166.941101,183.602509 171.210312,185.467148   C172.452652,186.009766 173.659683,186.604446 173.914093,188.130417   C174.484238,191.550232 167.842178,200.353104 164.221878,200.876755   C155.578094,202.127060 150.164139,207.157471 147.319351,215.206528   C147.118469,215.774918 147.293060,216.476013 147.293060,217.719177   C152.395035,211.501434 156.217590,204.116684 165.375244,205.069458   C166.231430,206.803574 165.730270,207.916183 165.417252,209.019058   C160.949432,224.762024 160.439575,240.489395 165.670959,256.168579   C166.549744,258.802490 166.297333,260.981079 163.699768,263.234192   C156.137451,256.646301 151.605576,248.291443 147.794601,238.983490  z" data-index="8" style="opacity: 1;"></path>
<path fill="#000000" opacity="1.000000" stroke="none" d=" M232.710693,279.419434   C234.105453,274.661804 237.800369,274.498413 242.529999,274.596527   C240.291962,273.071411 238.995636,272.188019 237.374207,271.083069   C241.251434,261.877747 246.346130,253.514771 251.439865,245.193390   C257.921783,234.604309 256.330078,233.394440 268.338654,241.397629   C269.307373,242.043243 270.303162,242.650360 271.305084,243.243713   C278.208893,247.332291 278.237030,247.347275 273.879547,253.887314   C264.752930,267.585175 251.949890,276.391296 236.554855,281.638000   C235.010544,282.164307 232.021194,284.275787 232.710693,279.419434  z" data-index="9" style="visibility: visible;"></path>
<path fill="#000000" opacity="1.000000" stroke="none" d=" M203.036957,253.102539   C217.434509,227.180511 233.959320,203.210419 253.707611,180.655579   C254.475296,183.714966 252.781357,185.091675 251.726517,186.562241   C236.681488,207.537018 222.560043,229.073456 211.266510,252.354782   C207.130676,260.880737 202.852814,269.347656 199.655991,278.284637   C198.443054,281.675537 197.182220,283.936951 192.914474,282.042908   C188.697968,280.171631 190.497818,277.673706 191.748337,275.185272   C195.405533,267.907684 199.141434,260.669647 203.036957,253.102539  z" data-index="10" style="visibility: visible;"></path>
<path fill="#000000" opacity="1.000000" stroke="none" d=" M280.519165,241.460876   C279.027496,243.930374 277.462158,242.842499 276.034882,242.057190   C271.804871,239.729675 267.610626,237.336761 263.414581,234.947998   C261.128693,233.646667 259.743866,232.102753 261.592438,229.349182   C267.534363,220.498489 273.498779,211.665939 280.115417,203.296677   C280.733368,202.515045 281.434143,201.771057 283.425232,201.820679   C287.948761,215.194931 286.161560,228.247360 280.519165,241.460876  z" data-index="11" style="visibility: visible;"></path>
<path fill="#000000" opacity="1.000000" stroke="none" d=" M182.153946,225.889435   C177.909256,235.030731 173.676437,243.773438 169.143738,253.135498   C165.728989,249.569763 166.311340,245.670410 165.974197,242.364182   C164.923264,232.058105 165.963272,221.836044 168.871918,211.856476   C169.317719,210.326950 169.489777,208.260849 171.501373,208.032593   C173.271088,207.831802 174.540497,209.207031 175.513550,210.593567   C178.693054,215.124115 180.747818,220.167938 182.153946,225.889435  z" data-index="12"></path>
<path fill="#000000" opacity="1.000000" stroke="none" d=" M208.145355,175.269470   C210.654144,174.880066 212.622940,173.772186 214.807663,174.127747   C215.994659,175.644867 214.895767,176.659317 214.158768,177.692749   C210.501129,182.821579 206.712540,187.861130 203.191269,193.081299   C201.546692,195.519348 199.795197,195.946381 197.339600,194.606140   C192.828003,192.143768 188.309219,189.694046 183.771683,187.279938   C181.336334,185.984253 180.995056,184.445343 182.519287,182.054550   C185.670990,177.111038 188.561966,172.862717 195.888351,175.422470   C199.400528,176.649597 203.755722,175.463959 208.145355,175.269470  z" data-index="13"></path>
<path fill="#000000" opacity="1.000000" stroke="none" d=" M187.396774,218.375412   C185.476974,220.869659 184.398346,219.688263 183.658997,217.891708   C181.469849,212.572327 178.178101,208.079300 173.934998,204.215134   C171.566956,202.058548 172.785416,199.682922 173.808670,197.365784   C177.861404,188.188492 177.860794,188.176102 186.512466,192.757233   C189.445129,194.310120 192.341187,195.932037 195.259598,197.512024   C197.817886,198.897034 198.291504,200.616791 196.645660,203.183563   C193.512070,208.070572 190.595627,213.096817 187.396774,218.375412  z" data-index="14" style="opacity: 1;"></path>
<path fill="#000000" opacity="1.000000" stroke="none" d=" M229.064270,408.480408   C225.319473,396.496765 230.471756,386.519653 241.613205,383.490295   C251.638168,380.764496 262.090027,387.009186 264.680115,397.272095   C266.712006,405.323151 262.439484,414.045776 254.530945,417.992340   C246.858017,421.821289 236.655075,419.335022 231.263275,412.266693   C230.464081,411.218994 229.903854,409.988953 229.064270,408.480408  z" data-index="15"></path>
</svg>