<?xml version="1.0" encoding="UTF-8"?>
<svg version="1.1" xmlns="http://www.w3.org/2000/svg" width="600" height="688">
<path d="M0 0 C0.33 0 0.66 0 1 0 C0.41513107 8.97787445 -0.56592897 17.83482372 -1.84765625 26.73828125 C-2.02380966 27.98506149 -2.19996307 29.23184174 -2.38145447 30.5164032 C-2.84375521 33.78325406 -3.30955547 37.04957889 -3.77716064 40.31567383 C-4.25615373 43.6677033 -4.73039711 47.02040456 -5.20507812 50.37304688 C-6.13241413 56.91598201 -7.06437849 63.45824481 -8 70 C-7.43472595 70.01229141 -6.8694519 70.02458282 -6.28704834 70.0372467 C-3.68543551 70.10328212 -1.08522622 70.19406033 1.515625 70.28515625 C2.84907959 70.31349548 2.84907959 70.31349548 4.20947266 70.34240723 C11.60799898 70.62944831 16.67608601 72.27437534 22.80859375 76.58984375 C25.3594714 79.39535446 25.77517278 80.75128091 25.8125 84.5 C25.45703125 87.09375 25.45703125 87.09375 25 89 C23.1875 90.0625 23.1875 90.0625 21 91 C19.515 90.505 19.515 90.505 18 90 C18 87.69 18 85.38 18 83 C11.81346489 79.41982922 7.09775612 78.36993136 0 78.25 C-0.87011719 78.22035156 -1.74023438 78.19070312 -2.63671875 78.16015625 C-4.75733216 78.09024592 -6.87866563 78.04276884 -9 78 C-9 83.28 -9 88.56 -9 94 C-7.80246094 93.9071875 -6.60492188 93.814375 -5.37109375 93.71875 C6.92934457 93.06942281 14.78462586 95.15921134 25 102 C25 104.31 25 106.62 25 109 C21.41412711 108.45780616 19.27728966 107.62422903 16.375 105.5 C11.42399325 102.57360137 6.76175381 102.51761411 1.1640625 102.34375 C0.28210205 102.30733398 -0.5998584 102.27091797 -1.50854492 102.23339844 C-3.67197713 102.14551358 -5.83596036 102.07138002 -8 102 C-6.73917574 108.21187566 -5.47545855 114.42315768 -4.2097168 120.6340332 C-3.77936034 122.74750387 -3.3496693 124.86111014 -2.9206543 126.97485352 C-2.30431709 130.01093771 -1.68559802 133.04652812 -1.06640625 136.08203125 C-0.87470352 137.02899368 -0.68300079 137.97595612 -0.48548889 138.95161438 C-0.30537766 139.83230087 -0.12526642 140.71298737 0.06030273 141.62036133 C0.21796616 142.39535477 0.37562958 143.17034821 0.53807068 143.96882629 C1.00709078 146.18456664 1.00709078 146.18456664 2 149 C4.40637942 150.33617685 6.74913943 151.48520438 9.2578125 152.59765625 C10.01663223 152.94426804 10.77545197 153.29087982 11.55726624 153.647995 C14.0755949 154.79577895 16.60025327 155.92891251 19.125 157.0625 C20.87852002 157.85923237 22.63152484 158.65709952 24.3840332 159.45605469 C28.05200169 161.12708395 31.72218462 162.79310275 35.39404297 164.45556641 C43.50246557 168.13064488 51.58687443 171.85769706 59.6696167 175.58883667 C62.12965111 176.72332203 64.59127176 177.8542999 67.05322266 178.98461914 C75.4466012 182.84524733 83.77366001 186.79187591 92 191 C92 193.31 92 195.62 92 198 C84.19103142 195.68495179 76.9968358 192.30266237 69.67471313 188.79220581 C65.91761865 186.99166227 62.15210808 185.20889743 58.38671875 183.42578125 C57.22610176 182.87568138 57.22610176 182.87568138 56.04203796 182.31446838 C45.95880525 177.54593645 35.79372588 172.95766557 25.62719727 168.37017822 C17.38551833 164.64091493 9.20022251 160.82677051 1 157 C1.33 194.29 1.66 231.58 2 270 C31.7 279.9 61.4 289.8 92 300 C92 302.64 92 305.28 92 308 C83.59779583 305.8579559 75.39217281 303.21162479 67.18130493 300.44296265 C64.87978847 299.66806921 62.57626181 298.89942023 60.2722168 298.13208008 C52.3318906 295.48370188 44.40446326 292.80219776 36.4962616 290.05924988 C32.69849806 288.74444511 28.8960537 287.44350425 25.0930481 286.14395142 C23.25144153 285.5104766 21.41209184 284.87039917 19.57516479 284.22348022 C16.98912257 283.31329839 14.39617891 282.42605671 11.80078125 281.54296875 C11.04276215 281.26964722 10.28474304 280.99632568 9.50375366 280.71472168 C1.01503287 277.88165134 -6.45414969 279.84432566 -14.70092773 282.68383789 C-15.51832932 282.95708389 -16.3357309 283.2303299 -17.17790222 283.51185608 C-19.84936145 284.40709214 -22.5163782 285.3148638 -25.18359375 286.22265625 C-27.0489458 286.84986992 -28.91459722 287.47619388 -30.78053284 288.10166931 C-35.66986955 289.74281398 -40.5556696 291.39423123 -45.44061279 293.04840088 C-53.28267625 295.70203083 -61.12995644 298.34018574 -68.97740364 300.97784233 C-71.71842442 301.90083903 -74.4578764 302.82837573 -77.1971283 303.75660706 C-78.86633106 304.31968651 -80.53556459 304.88267476 -82.20483398 305.44555664 C-82.96896606 305.70580627 -83.73309814 305.96605591 -84.52038574 306.23419189 C-89.77315316 308 -89.77315316 308 -92 308 C-92 271.37 -92 234.74 -92 197 C-53.08957226 178.68921047 -53.08957226 178.68921047 -40.875 173.1875 C-38.84315219 172.26859371 -36.81172703 171.34875729 -34.78031921 170.42887878 C-33.44394917 169.8237908 -32.10745594 169.21897481 -30.77082825 168.61445618 C-24.14966961 165.61902777 -17.54240071 162.59361174 -10.9375 159.5625 C-9.91962402 159.09545654 -8.90174805 158.62841309 -7.85302734 158.1472168 C-5.56847535 157.09859976 -3.28410916 156.0495812 -1 155 C-1 153.68 -1 152.36 -1 151 C-1.58450928 151.28496338 -2.16901855 151.56992676 -2.77124023 151.86352539 C-17.20318977 158.88301013 -31.72580104 165.65968538 -46.35571289 172.25415039 C-53.4906548 175.47397018 -60.59978558 178.73738616 -67.66796875 182.1015625 C-68.36385605 182.43159271 -69.05974335 182.76162292 -69.77671814 183.10165405 C-73.105729 184.68059375 -76.42994428 186.26829563 -79.74682617 187.87255859 C-80.92092041 188.43023926 -82.09501465 188.98791992 -83.3046875 189.5625 C-84.33577637 190.05878906 -85.36686523 190.55507813 -86.42919922 191.06640625 C-89 192 -89 192 -92 191 C-91.23816406 190.11699219 -90.47632813 189.23398437 -89.69140625 188.32421875 C-84.14606587 181.88368266 -78.65966172 175.40913889 -73.3046875 168.80859375 C-70.12909037 164.93867115 -66.88509886 161.12796874 -63.62866211 157.32592773 C-59.47857573 152.45789074 -57.88279147 150.16716715 -58 143.75 C-57.65226139 137.21115051 -55.83961627 133.08730282 -52.1875 127.6875 C-51.52911133 126.70958496 -51.52911133 126.70958496 -50.85742188 125.71191406 C-47.66413972 121.27785437 -47.66413972 121.27785437 -45.13378906 120.21923828 C-41.46143242 119.84191834 -39.04476201 121.17388923 -35.93408203 123.01708984 C-32.61771958 126.41717767 -32.91715314 130.112467 -32.85351562 134.68164062 C-32.88123047 135.87982422 -32.90894531 137.07800781 -32.9375 138.3125 C-32.93041016 139.53001953 -32.92332031 140.74753906 -32.91601562 142.00195312 C-32.90424422 145.00366221 -32.93363941 147.99916774 -33 151 C-31.35045833 147.89779023 -29.7060119 144.79290789 -28.0625 141.6875 C-27.59392578 140.80642578 -27.12535156 139.92535156 -26.64257812 139.01757812 C-26.19462891 138.17001953 -25.74667969 137.32246094 -25.28515625 136.44921875 C-24.87144775 135.66893311 -24.45773926 134.88864746 -24.03149414 134.0847168 C-22.88885733 131.89537922 -22.88885733 131.89537922 -22 129 C-22.680625 128.7525 -23.36125 128.505 -24.0625 128.25 C-27.56865083 126.75802092 -30.71620368 124.93164489 -34 123 C-33.01789801 116.8329772 -28.30620608 112.21711216 -24 108 C-19.94210683 105.1546898 -15.5068431 103.04096604 -11 101 C-11 99.68 -11 98.36 -11 97 C-13.64 98.32 -16.28 99.64 -19 101 C-19.21665549 97.93372294 -19.37459318 94.88272762 -19.5 91.8125 C-19.60054687 90.51602539 -19.60054687 90.51602539 -19.703125 89.19335938 C-19.78340423 86.57424954 -19.7573121 84.51366763 -19 82 C-17.04677492 80.25826722 -15.20948377 79.21747351 -12.83007812 78.1394043 C-10.79936617 77.1395954 -10.79936617 77.1395954 -10.24804688 74.86645508 C-10.16619141 74.2505249 -10.08433594 73.63459473 -10 73 C-10.84304688 73.5053125 -11.68609375 74.010625 -12.5546875 74.53125 C-14.19824219 75.50578125 -14.19824219 75.50578125 -15.875 76.5 C-17.51082031 77.47453125 -17.51082031 77.47453125 -19.1796875 78.46875 C-22 80 -22 80 -24 80 C-23.41673599 75.27838234 -22.50007381 70.90932415 -21.09814453 66.36547852 C-20.90774597 65.74332458 -20.71734741 65.12117065 -20.5211792 64.48016357 C-19.89683749 62.44479703 -19.26499747 60.41184899 -18.6328125 58.37890625 C-18.19263306 56.95088023 -17.75285096 55.52273169 -17.31344604 54.09446716 C-16.39369312 51.10875592 -15.47044484 48.12415691 -14.54443359 45.14038086 C-13.36352727 41.33494477 -12.18937603 37.52746812 -11.01761055 33.71920872 C-10.11020825 30.7716058 -9.20020369 27.82481161 -8.28933334 24.87827873 C-7.85583621 23.47556717 -7.42289509 22.07268364 -6.99054337 20.66961861 C-4.84249101 13.70623224 -2.66838089 6.78504999 0 0 Z M-46.125 136.5 C-47.73375 137.325 -49.3425 138.15 -51 139 C-51 145.27 -51 151.54 -51 158 C-49.39125 157.360625 -47.7825 156.72125 -46.125 156.0625 C-45.22007812 155.70285156 -44.31515625 155.34320313 -43.3828125 154.97265625 C-41.03862333 154.05098738 -41.03862333 154.05098738 -39 153 C-39 146.73 -39 140.46 -39 134 C-41.82440059 134 -43.6229276 135.21688595 -46.125 136.5 Z M-24 188 C-24.82545462 189.51384113 -25.63471087 191.03651839 -26.4375 192.5625 C-26.88996094 193.40941406 -27.34242188 194.25632812 -27.80859375 195.12890625 C-30.82618544 202.40080753 -30.13062012 210.42004823 -30.09765625 218.15234375 C-30.0962413 219.40761368 -30.09482635 220.66288361 -30.09336853 221.95619202 C-30.08873576 225.27205351 -30.07977139 228.58784452 -30.06866455 231.90368652 C-30.05838292 235.29581091 -30.05385653 238.68794261 -30.04882812 242.08007812 C-30.03782571 248.72007386 -30.02057483 255.3600273 -30 262 C-26.04 260.68 -22.08 259.36 -18 258 C-17.90935242 250.18478375 -17.83608544 242.36985882 -17.79275131 234.55426025 C-17.77194485 230.92448269 -17.74375646 227.29508585 -17.69824219 223.66552734 C-17.65453341 220.15768737 -17.63081079 216.6502118 -17.62049103 213.14212036 C-17.60958746 211.16355356 -17.57840165 209.18513179 -17.54681396 207.20678711 C-17.54503174 200.00614215 -17.98931577 195.07103109 -22 189 C-22.66 188.67 -23.32 188.34 -24 188 Z M-46 198 C-46.639375 199.0725 -47.27875 200.145 -47.9375 201.25 C-48.29714844 201.85328125 -48.65679687 202.4565625 -49.02734375 203.078125 C-51.01100973 206.99765779 -51.12267102 210.60859438 -51.11352539 214.96191406 C-51.11344986 216.16285706 -51.11337433 217.36380005 -51.11329651 218.60113525 C-51.10813522 219.89291687 -51.10297394 221.18469849 -51.09765625 222.515625 C-51.09579017 223.85512235 -51.09436716 225.19462038 -51.09336853 226.53411865 C-51.08955835 230.05222472 -51.07974091 233.57028921 -51.06866455 237.08837891 C-51.05841817 240.68130939 -51.053864 244.27424661 -51.04882812 247.8671875 C-51.03811725 254.91147692 -51.02053262 261.95573137 -51 269 C-47.04 267.68 -43.08 266.36 -39 265 C-38.9007179 257.20788234 -38.82833439 249.41613741 -38.78027344 241.62353516 C-38.7602262 238.9756834 -38.73298116 236.32787554 -38.69824219 233.68017578 C-38.64942256 229.86219412 -38.62696119 226.04480064 -38.609375 222.2265625 C-38.58872986 221.05324371 -38.56808472 219.87992493 -38.54681396 218.67105103 C-38.54491098 211.61394151 -39.13030605 205.10227266 -43 199 C-43.99 198.67 -44.98 198.34 -46 198 Z M-67 207 C-73.27732964 215.36977286 -73.28551795 223.66020663 -73.1953125 233.8125 C-73.1924826 235.02196289 -73.18965271 236.23142578 -73.18673706 237.47753906 C-73.17559396 241.31846248 -73.15049983 245.15914775 -73.125 249 C-73.11496263 251.61327787 -73.1058381 254.22655941 -73.09765625 256.83984375 C-73.07567383 263.22664296 -73.04225475 269.61330446 -73 276 C-71.56206608 275.68950274 -70.1246682 275.3765224 -68.6875 275.0625 C-67.48673828 274.80146484 -67.48673828 274.80146484 -66.26171875 274.53515625 C-63.854599 274.00113841 -63.854599 274.00113841 -61 273 C-60.92379965 265.15297684 -60.87133671 257.30604948 -60.83520508 249.45874023 C-60.82183639 246.79026928 -60.79968395 244.12228282 -60.77368164 241.45385742 C-60.73720415 237.61370748 -60.72025141 233.77388562 -60.70703125 229.93359375 C-60.69154739 228.74479111 -60.67606354 227.55598846 -60.66011047 226.3311615 C-60.65867838 219.24863613 -60.84937243 213.61738721 -65.6875 208.0625 C-66.120625 207.711875 -66.55375 207.36125 -67 207 Z " fill="#A73042" transform="translate(295,102)"/>
<path d="M0 0 C0.33 0 0.66 0 1 0 C0.41513107 8.97787445 -0.56592897 17.83482372 -1.84765625 26.73828125 C-2.02380966 27.98506149 -2.19996307 29.23184174 -2.38145447 30.5164032 C-2.84375521 33.78325406 -3.30955547 37.04957889 -3.77716064 40.31567383 C-4.25615373 43.6677033 -4.73039711 47.02040456 -5.20507812 50.37304688 C-6.13241413 56.91598201 -7.06437849 63.45824481 -8 70 C-7.43472595 70.01229141 -6.8694519 70.02458282 -6.28704834 70.0372467 C-3.68543551 70.10328212 -1.08522622 70.19406033 1.515625 70.28515625 C2.84907959 70.31349548 2.84907959 70.31349548 4.20947266 70.34240723 C11.60799898 70.62944831 16.67608601 72.27437534 22.80859375 76.58984375 C25.3594714 79.39535446 25.77517278 80.75128091 25.8125 84.5 C25.45703125 87.09375 25.45703125 87.09375 25 89 C23.1875 90.0625 23.1875 90.0625 21 91 C19.515 90.505 19.515 90.505 18 90 C18 87.69 18 85.38 18 83 C11.81346489 79.41982922 7.09775612 78.36993136 0 78.25 C-0.87011719 78.22035156 -1.74023438 78.19070312 -2.63671875 78.16015625 C-4.75733216 78.09024592 -6.87866563 78.04276884 -9 78 C-9 83.28 -9 88.56 -9 94 C-7.80246094 93.9071875 -6.60492188 93.814375 -5.37109375 93.71875 C6.92934457 93.06942281 14.78462586 95.15921134 25 102 C25 104.31 25 106.62 25 109 C21.41412711 108.45780616 19.27728966 107.62422903 16.375 105.5 C11.42399325 102.57360137 6.76175381 102.51761411 1.1640625 102.34375 C0.28210205 102.30733398 -0.5998584 102.27091797 -1.50854492 102.23339844 C-3.67197713 102.14551358 -5.83596036 102.07138002 -8 102 C-6.73917574 108.21187566 -5.47545855 114.42315768 -4.2097168 120.6340332 C-3.77936034 122.74750387 -3.3496693 124.86111014 -2.9206543 126.97485352 C-2.30431709 130.01093771 -1.68559802 133.04652812 -1.06640625 136.08203125 C-0.87470352 137.02899368 -0.68300079 137.97595612 -0.48548889 138.95161438 C-0.30537766 139.83230087 -0.12526642 140.71298737 0.06030273 141.62036133 C0.21796616 142.39535477 0.37562958 143.17034821 0.53807068 143.96882629 C1.00709078 146.18456664 1.00709078 146.18456664 2 149 C4.40637942 150.33617685 6.74913943 151.48520438 9.2578125 152.59765625 C10.01663223 152.94426804 10.77545197 153.29087982 11.55726624 153.647995 C14.0755949 154.79577895 16.60025327 155.92891251 19.125 157.0625 C20.87852002 157.85923237 22.63152484 158.65709952 24.3840332 159.45605469 C28.05200169 161.12708395 31.72218462 162.79310275 35.39404297 164.45556641 C43.50246557 168.13064488 51.58687443 171.85769706 59.6696167 175.58883667 C62.12965111 176.72332203 64.59127176 177.8542999 67.05322266 178.98461914 C75.4466012 182.84524733 83.77366001 186.79187591 92 191 C92 193.31 92 195.62 92 198 C84.19103142 195.68495179 76.9968358 192.30266237 69.67471313 188.79220581 C65.91761865 186.99166227 62.15210808 185.20889743 58.38671875 183.42578125 C57.22610176 182.87568138 57.22610176 182.87568138 56.04203796 182.31446838 C45.95880525 177.54593645 35.79372588 172.95766557 25.62719727 168.37017822 C17.38551833 164.64091493 9.20022251 160.82677051 1 157 C1.33 194.62 1.66 232.24 2 271 C1.34 271 0.68 271 0 271 C-0.33 231.4 -0.66 191.8 -1 151 C-9.25 154.96 -17.5 158.92 -26 163 C-31.38743036 165.47973417 -36.77729772 167.94654415 -42.1875 170.375 C-44.97636686 171.63037068 -47.76405538 172.88832141 -50.55078125 174.1484375 C-51.59141724 174.61899567 -51.59141724 174.61899567 -52.65307617 175.09906006 C-57.68283777 177.38201134 -62.68053268 179.72773969 -67.66796875 182.1015625 C-68.36385605 182.43159271 -69.05974335 182.76162292 -69.77671814 183.10165405 C-73.105729 184.68059375 -76.42994428 186.26829563 -79.74682617 187.87255859 C-80.92092041 188.43023926 -82.09501465 188.98791992 -83.3046875 189.5625 C-84.33577637 190.05878906 -85.36686523 190.55507813 -86.42919922 191.06640625 C-89 192 -89 192 -92 191 C-91.23816406 190.11699219 -90.47632813 189.23398437 -89.69140625 188.32421875 C-84.14606587 181.88368266 -78.65966172 175.40913889 -73.3046875 168.80859375 C-70.12909037 164.93867115 -66.88509886 161.12796874 -63.62866211 157.32592773 C-59.47857573 152.45789074 -57.88279147 150.16716715 -58 143.75 C-57.65226139 137.21115051 -55.83961627 133.08730282 -52.1875 127.6875 C-51.52911133 126.70958496 -51.52911133 126.70958496 -50.85742188 125.71191406 C-47.66413972 121.27785437 -47.66413972 121.27785437 -45.13378906 120.21923828 C-41.46143242 119.84191834 -39.04476201 121.17388923 -35.93408203 123.01708984 C-32.61771958 126.41717767 -32.91715314 130.112467 -32.85351562 134.68164062 C-32.88123047 135.87982422 -32.90894531 137.07800781 -32.9375 138.3125 C-32.93041016 139.53001953 -32.92332031 140.74753906 -32.91601562 142.00195312 C-32.90424422 145.00366221 -32.93363941 147.99916774 -33 151 C-31.35045833 147.89779023 -29.7060119 144.79290789 -28.0625 141.6875 C-27.59392578 140.80642578 -27.12535156 139.92535156 -26.64257812 139.01757812 C-26.19462891 138.17001953 -25.74667969 137.32246094 -25.28515625 136.44921875 C-24.87144775 135.66893311 -24.45773926 134.88864746 -24.03149414 134.0847168 C-22.88885733 131.89537922 -22.88885733 131.89537922 -22 129 C-22.680625 128.7525 -23.36125 128.505 -24.0625 128.25 C-27.56865083 126.75802092 -30.71620368 124.93164489 -34 123 C-33.01789801 116.8329772 -28.30620608 112.21711216 -24 108 C-19.94210683 105.1546898 -15.5068431 103.04096604 -11 101 C-11 99.68 -11 98.36 -11 97 C-13.64 98.32 -16.28 99.64 -19 101 C-19.21665549 97.93372294 -19.37459318 94.88272762 -19.5 91.8125 C-19.60054687 90.51602539 -19.60054687 90.51602539 -19.703125 89.19335938 C-19.78340423 86.57424954 -19.7573121 84.51366763 -19 82 C-17.04677492 80.25826722 -15.20948377 79.21747351 -12.83007812 78.1394043 C-10.79936617 77.1395954 -10.79936617 77.1395954 -10.24804688 74.86645508 C-10.16619141 74.2505249 -10.08433594 73.63459473 -10 73 C-10.84304688 73.5053125 -11.68609375 74.010625 -12.5546875 74.53125 C-14.19824219 75.50578125 -14.19824219 75.50578125 -15.875 76.5 C-17.51082031 77.47453125 -17.51082031 77.47453125 -19.1796875 78.46875 C-22 80 -22 80 -24 80 C-23.41673599 75.27838234 -22.50007381 70.90932415 -21.09814453 66.36547852 C-20.90774597 65.74332458 -20.71734741 65.12117065 -20.5211792 64.48016357 C-19.89683749 62.44479703 -19.26499747 60.41184899 -18.6328125 58.37890625 C-18.19263306 56.95088023 -17.75285096 55.52273169 -17.31344604 54.09446716 C-16.39369312 51.10875592 -15.47044484 48.12415691 -14.54443359 45.14038086 C-13.36352727 41.33494477 -12.18937603 37.52746812 -11.01761055 33.71920872 C-10.11020825 30.7716058 -9.20020369 27.82481161 -8.28933334 24.87827873 C-7.85583621 23.47556717 -7.42289509 22.07268364 -6.99054337 20.66961861 C-4.84249101 13.70623224 -2.66838089 6.78504999 0 0 Z M-46.125 136.5 C-47.73375 137.325 -49.3425 138.15 -51 139 C-51 145.27 -51 151.54 -51 158 C-49.39125 157.360625 -47.7825 156.72125 -46.125 156.0625 C-45.22007812 155.70285156 -44.31515625 155.34320313 -43.3828125 154.97265625 C-41.03862333 154.05098738 -41.03862333 154.05098738 -39 153 C-39 146.73 -39 140.46 -39 134 C-41.82440059 134 -43.6229276 135.21688595 -46.125 136.5 Z " fill="#A93546" transform="translate(295,102)"/>
<path d="M0 0 C5.72988313 -1.35870283 11.42566911 -2.40687652 17 0 C22.30623947 5.21042487 25.31876227 12.42517324 28.52441406 19.03564453 C30.72476763 23.45601069 33.26336365 27.65005038 35.8125 31.875 C37.194375 34.22625 38.57625 36.5775 40 39 C40.33 26.13 40.66 13.26 41 0 C45.29 0 49.58 0 54 0 C54 22.44 54 44.88 54 68 C50.04 68 46.08 68 42 68 C39.19245637 64.84990918 37.81405688 62.68251017 36 59 C34.74371767 56.84089099 33.47747434 54.6875575 32.203125 52.5390625 C30.88226583 50.23609333 29.56433554 47.93167494 28.25 45.625 C26.92334981 43.30383846 25.59465135 40.98386601 24.265625 38.6640625 C23.68586914 37.64779785 23.10611328 36.6315332 22.50878906 35.58447266 C21.40041609 33.68589074 20.21947075 31.82920612 19 30 C18.67 42.54 18.34 55.08 18 68 C14.04 68 10.08 68 6 68 C4.26847397 66.26847397 4.86613835 63.92411081 4.8581543 61.56567383 C4.85111984 60.40389114 4.84408539 59.24210846 4.83683777 58.04512024 C4.83059135 56.14526619 4.83059135 56.14526619 4.82421875 54.20703125 C4.80696114 52.22994669 4.78967993 50.252862 4.77101612 48.27579021 C4.72539485 43.38563236 4.68772613 38.49558339 4.67407227 33.60522461 C4.66592648 30.86744693 4.64732234 28.13012535 4.61714172 25.39250183 C4.5889933 22.8116625 4.57608157 20.23060228 4.58000183 17.64961243 C4.48822189 11.09602015 4.32673811 7.03127844 0 2 C0 1.34 0 0.68 0 0 Z " fill="#A93445" transform="translate(389,446)"/>
<path d="M0 0 C12.54 0 25.08 0 38 0 C40 7 40 7 40 13 C31.09 13 22.18 13 13 13 C13 16.96 13 20.92 13 25 C19.27 25 25.54 25 32 25 C32 29.29 32 33.58 32 38 C25.73 38 19.46 38 13 38 C13 43.61 13 49.22 13 55 C22.24 55 31.48 55 41 55 C40 66 40 66 38 68 C35.21489776 68.18753311 32.53100354 68.25561232 29.74609375 68.23046875 C28.93004166 68.23001053 28.11398956 68.22955231 27.27320862 68.2290802 C25.54744005 68.22605744 23.82167422 68.21817042 22.09594727 68.20581055 C19.44472667 68.18754978 16.79385504 68.18530086 14.14257812 68.18554688 C12.46874696 68.18063194 10.79491818 68.17480373 9.12109375 68.16796875 C8.32319931 68.16685593 7.52530487 68.1657431 6.70323181 68.16459656 C1.11604901 68.11604901 1.11604901 68.11604901 0 67 C-0.09417773 64.91380978 -0.11742878 62.82439523 -0.11352539 60.73608398 C-0.11367142 60.08244873 -0.11381744 59.42881348 -0.1139679 58.75537109 C-0.11326883 56.58557872 -0.10547678 54.41587121 -0.09765625 52.24609375 C-0.09579205 50.74536689 -0.09436816 49.24463943 -0.09336853 47.74391174 C-0.08954352 43.78681774 -0.0797134 39.82976022 -0.06866455 35.87268066 C-0.05665533 31.1286825 -0.05204811 26.38467215 -0.04621124 21.64066315 C-0.03650162 14.42708336 -0.01734498 7.21358369 0 0 Z " fill="#AA3848" transform="translate(336,446)"/>
<path d="M0 0 C12.54 0 25.08 0 38 0 C40 7 40 7 40 13 C31.09 13 22.18 13 13 13 C13 16.96 13 20.92 13 25 C19.27 25 25.54 25 32 25 C32 29.29 32 33.58 32 38 C25.73 38 19.46 38 13 38 C13 43.61 13 49.22 13 55 C22.24 55 31.48 55 41 55 C40 66 40 66 38 68 C35.21489776 68.18753311 32.53100354 68.25561232 29.74609375 68.23046875 C28.93004166 68.23001053 28.11398956 68.22955231 27.27320862 68.2290802 C25.54744005 68.22605744 23.82167422 68.21817042 22.09594727 68.20581055 C19.44472667 68.18754978 16.79385504 68.18530086 14.14257812 68.18554688 C12.46874696 68.18063194 10.79491818 68.17480373 9.12109375 68.16796875 C8.32319931 68.16685593 7.52530487 68.1657431 6.70323181 68.16459656 C1.11604901 68.11604901 1.11604901 68.11604901 0 67 C-0.09417773 64.91380978 -0.11742878 62.82439523 -0.11352539 60.73608398 C-0.11367142 60.08244873 -0.11381744 59.42881348 -0.1139679 58.75537109 C-0.11326883 56.58557872 -0.10547678 54.41587121 -0.09765625 52.24609375 C-0.09579205 50.74536689 -0.09436816 49.24463943 -0.09336853 47.74391174 C-0.08954352 43.78681774 -0.0797134 39.82976022 -0.06866455 35.87268066 C-0.05665533 31.1286825 -0.05204811 26.38467215 -0.04621124 21.64066315 C-0.03650162 14.42708336 -0.01734498 7.21358369 0 0 Z " fill="#A93445" transform="translate(216,446)"/>
<path d="M0 0 C4.95 0 9.9 0 15 0 C19.85607654 15.61586034 24.58680364 31.25291299 29 47 C31.18443594 41.37493747 33.0260368 35.7468746 34.6640625 29.94140625 C34.90160248 29.1116478 35.13914246 28.28188934 35.38388062 27.42698669 C36.13402405 24.80636516 36.88003382 22.18459762 37.625 19.5625 C38.6134812 16.08356376 39.60617462 12.60587181 40.6015625 9.12890625 C40.82760162 8.32796036 41.05364075 7.52701447 41.28652954 6.70179749 C42.88719104 1.11280896 42.88719104 1.11280896 44 0 C46.35313555 -0.07271741 48.70833668 -0.08370868 51.0625 -0.0625 C52.35285156 -0.05347656 53.64320313 -0.04445313 54.97265625 -0.03515625 C55.97167969 -0.02355469 56.97070312 -0.01195312 58 0 C56.4553167 7.70693986 54.1622295 15.06562455 51.71875 22.53125 C51.30026262 23.81631594 50.88193037 25.1014324 50.46374512 26.38659668 C49.59256276 29.06014195 48.71801843 31.73255937 47.84130859 34.40429688 C46.71685041 37.83270052 45.6033381 41.26455332 44.49251556 44.69739532 C43.63468977 47.34298987 42.77001536 49.98630727 41.90333557 52.62901306 C41.28840309 54.50937701 40.68023217 56.39194781 40.07214355 58.27453613 C39.51146179 59.97265442 39.51146179 59.97265442 38.93945312 61.70507812 C38.6123938 62.70607544 38.28533447 63.70707275 37.94836426 64.73840332 C37 67 37 67 35 68 C32.95944995 68.07065617 30.91665743 68.08421976 28.875 68.0625 C27.77929688 68.05347656 26.68359375 68.04445313 25.5546875 68.03515625 C24.29011719 68.01775391 24.29011719 68.01775391 23 68 C19.62998442 60.92639745 17.11551327 53.67870326 14.70703125 46.23046875 C14.31553391 45.0319075 13.92403656 43.83334625 13.52067566 42.59846497 C12.69912403 40.08041821 11.87933063 37.56188858 11.06274414 35.04223633 C10.01797405 31.81860236 8.96778868 28.59676657 7.91560841 25.37554455 C6.90673208 22.2861216 5.90057502 19.19581506 4.89453125 16.10546875 C4.51851273 14.95128952 4.1424942 13.79711029 3.75508118 12.60795593 C3.40769394 11.53616592 3.0603067 10.46437592 2.70239258 9.36010742 C2.39690994 8.41906662 2.09142731 7.47802582 1.77668762 6.50846863 C1.11153235 4.36021613 0.54543131 2.18172523 0 0 Z " fill="#AA3848" transform="translate(266,446)"/>
<path d="M0 0 C0 4.95 0 9.9 0 15 C-1.32 14.360625 -2.64 13.72125 -4 13.0625 C-9.34538968 10.70077909 -14.13470874 9.14650899 -19.9375 10.875 C-21.93004627 11.83599082 -21.93004627 11.83599082 -23 13 C-23.40173084 15.39961995 -23.40173084 15.39961995 -23 18 C-21.43505412 19.88392926 -21.43505412 19.88392926 -19.1875 21.375 C-18.37152344 21.97054688 -17.55554688 22.56609375 -16.71484375 23.1796875 C-13.94005964 25.04019023 -11.10791332 26.7705165 -8.25 28.5 C-2.5792994 32.02631802 0.8450808 35.5352424 3 42 C3.53385142 47.96476294 3.55270149 52.95745595 0 58 C-4.69740059 63.31067234 -9.99926211 65.97428734 -17 67 C-24.22972388 67.13993014 -30.4100782 65.91477311 -37 63 C-37 58.05 -37 53.1 -37 48 C-32 50 -32 50 -30.0078125 50.8515625 C-25.53424474 52.68925216 -21.91022481 53.55587451 -17 53 C-14.12853006 51.63002843 -14.12853006 51.63002843 -12 50 C-11.9289134 47.15653594 -11.93493941 45.57801953 -13 43 C-15.79238869 40.51040045 -18.98320684 38.79938239 -22.25 37 C-29.64401657 32.85402969 -35.19064822 29.42805534 -38 21 C-38.60161973 15.03008114 -38.08461718 10.27370034 -35 5 C-25.77016059 -4.89074149 -11.97908104 -5.867305 0 0 Z " fill="#AA3647" transform="translate(495,448)"/>
<path d="M0 0 C0 4.95 0 9.9 0 15 C-1.32 14.360625 -2.64 13.72125 -4 13.0625 C-9.38101597 10.68503854 -14.03270571 9.36866079 -19.9375 10.625 C-22.17588805 11.86624082 -22.17588805 11.86624082 -23.125 14.3125 C-23.2690521 17.17895814 -23.2690521 17.17895814 -20.96484375 19.35546875 C-17.0726181 22.82719045 -12.85009403 25.49065476 -8.43945312 28.25 C-3.33233307 31.53498175 0.78202067 35.16795282 3 41 C3.72126941 47.20104346 3.63518284 52.73525244 0 58 C-4.63746468 63.38948598 -9.10804274 65.9273075 -16.125 66.875 C-23.47649633 67.39866823 -30.0945921 65.30180263 -37 63 C-37 58.05 -37 53.1 -37 48 C-32 50 -32 50 -30.04296875 50.8515625 C-25.13325946 52.89813606 -21.32021022 53.53202102 -16 53 C-13.5404226 51.66169042 -13.5404226 51.66169042 -12 50 C-11.84728276 46.69510278 -11.84728276 46.69510278 -13 43 C-15.46040721 40.64349003 -18.29915314 39.05283689 -21.25 37.375 C-28.46380173 33.11727554 -34.98236352 29.25879457 -38 21 C-38.98495547 14.53773116 -37.78335121 9.33161494 -34 4 C-25.27754907 -5.41546758 -11.00912077 -5.39222242 0 0 Z " fill="#A93646" transform="translate(139,448)"/>
<path d="M0 0 C18.81 0 37.62 0 57 0 C56.34 4.29 55.68 8.58 55 13 C48.07 13 41.14 13 34 13 C34 31.15 34 49.3 34 68 C30.04 68 26.08 68 22 68 C21 67 21 67 20.87974548 64.82969666 C20.88196609 63.87261307 20.88418671 62.91552948 20.88647461 61.92944336 C20.88655014 60.84839828 20.88662567 59.76735321 20.88670349 58.65354919 C20.89186478 57.4775264 20.89702606 56.3015036 20.90234375 55.08984375 C20.9037587 53.89267227 20.90517365 52.69550079 20.90663147 51.46205139 C20.91225021 47.62050934 20.92480589 43.77902457 20.9375 39.9375 C20.94251259 37.34049563 20.94707591 34.74349035 20.95117188 32.14648438 C20.96222573 25.76430068 20.97950292 19.38216007 21 13 C14.07 13 7.14 13 0 13 C0 8.71 0 4.42 0 0 Z " fill="#AA3849" transform="translate(149,446)"/>
<path d="M0 0 C0.33 0 0.66 0 1 0 C0.41513107 8.97787445 -0.56592897 17.83482372 -1.84765625 26.73828125 C-2.02380966 27.98506149 -2.19996307 29.23184174 -2.38145447 30.5164032 C-2.84375521 33.78325406 -3.30955547 37.04957889 -3.77716064 40.31567383 C-4.25615373 43.6677033 -4.73039711 47.02040456 -5.20507812 50.37304688 C-6.13241413 56.91598201 -7.06437849 63.45824481 -8 70 C-7.43472595 70.01229141 -6.8694519 70.02458282 -6.28704834 70.0372467 C-3.68543551 70.10328212 -1.08522622 70.19406033 1.515625 70.28515625 C2.84907959 70.31349548 2.84907959 70.31349548 4.20947266 70.34240723 C11.60799898 70.62944831 16.67608601 72.27437534 22.80859375 76.58984375 C25.3594714 79.39535446 25.77517278 80.75128091 25.8125 84.5 C25.45703125 87.09375 25.45703125 87.09375 25 89 C23.1875 90.0625 23.1875 90.0625 21 91 C20.01 90.67 19.02 90.34 18 90 C18 87.69 18 85.38 18 83 C11.81346489 79.41982922 7.09775612 78.36993136 0 78.25 C-0.87011719 78.22035156 -1.74023438 78.19070312 -2.63671875 78.16015625 C-4.75733216 78.09024592 -6.87866563 78.04276884 -9 78 C-9 83.28 -9 88.56 -9 94 C-7.80246094 93.9071875 -6.60492188 93.814375 -5.37109375 93.71875 C6.92934457 93.06942281 14.78462586 95.15921134 25 102 C25 104.31 25 106.62 25 109 C21.41412711 108.45780616 19.27728966 107.62422903 16.375 105.5 C9.1809874 101.23278227 0.1170303 102.09083147 -8 102 C-8.33 103.32 -8.66 104.64 -9 106 C-9 104.68 -9 103.36 -9 102 C-9.66 101.67 -10.32 101.34 -11 101 C-11 99.68 -11 98.36 -11 97 C-13.64 98.32 -16.28 99.64 -19 101 C-19.21665549 97.93372294 -19.37459318 94.88272762 -19.5 91.8125 C-19.56703125 90.94818359 -19.6340625 90.08386719 -19.703125 89.19335938 C-19.78340423 86.57424954 -19.7573121 84.51366763 -19 82 C-17.04677492 80.25826722 -15.20948377 79.21747351 -12.83007812 78.1394043 C-10.79936617 77.1395954 -10.79936617 77.1395954 -10.24804688 74.86645508 C-10.12526367 73.94255981 -10.12526367 73.94255981 -10 73 C-10.84304688 73.5053125 -11.68609375 74.010625 -12.5546875 74.53125 C-14.19824219 75.50578125 -14.19824219 75.50578125 -15.875 76.5 C-17.51082031 77.47453125 -17.51082031 77.47453125 -19.1796875 78.46875 C-22 80 -22 80 -24 80 C-23.41673599 75.27838234 -22.50007381 70.90932415 -21.09814453 66.36547852 C-20.90774597 65.74332458 -20.71734741 65.12117065 -20.5211792 64.48016357 C-19.89683749 62.44479703 -19.26499747 60.41184899 -18.6328125 58.37890625 C-18.19263306 56.95088023 -17.75285096 55.52273169 -17.31344604 54.09446716 C-16.39369312 51.10875592 -15.47044484 48.12415691 -14.54443359 45.14038086 C-13.36352727 41.33494477 -12.18937603 37.52746812 -11.01761055 33.71920872 C-10.11020825 30.7716058 -9.20020369 27.82481161 -8.28933334 24.87827873 C-7.85583621 23.47556717 -7.42289509 22.07268364 -6.99054337 20.66961861 C-4.84249101 13.70623224 -2.66838089 6.78504999 0 0 Z " fill="#B44E5D" transform="translate(295,102)"/>
<path d="M0 0 C3.30837734 1.35941711 4.65545981 2.52333575 6.1875 5.75 C6.51105469 6.40484375 6.83460938 7.0596875 7.16796875 7.734375 C8.89996357 12.45060502 9.12403848 17.20576084 9.11352539 22.18896484 C9.11344986 23.38975677 9.11337433 24.59054871 9.11329651 25.82772827 C9.10813522 27.10918732 9.10297394 28.39064636 9.09765625 29.7109375 C9.09578895 31.04757636 9.09436652 32.38421592 9.09336853 33.72085571 C9.08956795 37.22249269 9.07975891 40.72408756 9.06866455 44.22570801 C9.05839732 47.80541413 9.05385957 51.38512712 9.04882812 54.96484375 C9.03813422 61.97657969 9.02108764 68.98828782 9 76 C7.62410383 75.71259058 6.24932678 75.41982258 4.875 75.125 C4.10929687 74.96257812 3.34359375 74.80015625 2.5546875 74.6328125 C-0.35772123 73.91139015 -3.16457354 72.97801666 -6 72 C-6.09306871 64.20211916 -6.16395047 56.40437074 -6.20724869 48.60607243 C-6.22803981 44.98416963 -6.25619947 41.36264945 -6.30175781 37.7409668 C-6.34552219 34.239606 -6.36920069 30.73861102 -6.37950897 27.2369976 C-6.3903937 25.26457008 -6.42157019 23.29228778 -6.45318604 21.32008362 C-6.45497567 14.08991178 -5.9423332 8.20892998 -2 2 C-1.34 1.34 -0.68 0.68 0 0 Z " fill="#AC3D4D" transform="translate(318,289)"/>
<path d="M0 0 C1.98828125 0.140625 1.98828125 0.140625 4 1 C5.23046875 2.671875 5.23046875 2.671875 6.1875 4.75 C6.67283203 5.76320313 6.67283203 5.76320313 7.16796875 6.796875 C8.81047499 11.14604644 9.1235971 15.26892894 9.11352539 19.8918457 C9.11344986 21.05267166 9.11337433 22.21349762 9.11329651 23.40950012 C9.10813522 24.65237289 9.10297394 25.89524567 9.09765625 27.17578125 C9.0962413 28.45607712 9.09482635 29.73637299 9.09336853 31.0554657 C9.08956397 34.4469704 9.07975143 37.83843177 9.06866455 41.22991943 C9.05840597 44.69559137 9.05386141 48.16127036 9.04882812 51.62695312 C9.03780755 58.41798748 9.0210757 65.20898981 9 72 C7.24859857 71.54705135 5.49892656 71.08741252 3.75 70.625 C2.77546875 70.36976563 1.8009375 70.11453125 0.796875 69.8515625 C-1.65837303 69.10401491 -3.75617405 68.22876183 -6 67 C-6.10189485 59.3503769 -6.17167286 51.70093055 -6.21972656 44.05078125 C-6.2397713 41.45143086 -6.26701447 38.85212517 -6.30175781 36.25292969 C-6.35058865 32.5044447 -6.37304126 28.75655889 -6.390625 25.0078125 C-6.41127014 23.85636749 -6.43191528 22.70492249 -6.45318604 21.51858521 C-6.45516807 14.29967337 -5.50615435 8.38960223 -2 2 C-1.34 1.34 -0.68 0.68 0 0 Z " fill="#AC3C4C" transform="translate(361,308)"/>
<path d="M0 0 C3 1 3 1 4.1328125 2.7421875 C4.46023438 3.44601562 4.78765625 4.14984375 5.125 4.875 C5.45757812 5.57367188 5.79015625 6.27234375 6.1328125 6.9921875 C7.82071261 10.90020847 8.1219702 13.89293151 8.11352539 18.1237793 C8.11344986 19.38486008 8.11337433 20.64594086 8.11329651 21.94523621 C8.10818989 23.32156412 8.10297389 24.69789163 8.09765625 26.07421875 C8.09579086 27.48240611 8.09436753 28.89059411 8.09336853 30.29878235 C8.08955288 34.0026733 8.07973072 37.70652495 8.06866455 41.41040039 C8.05842997 45.19091256 8.05386652 48.97143109 8.04882812 52.75195312 C8.0381076 60.16798665 8.0210426 67.58398782 8 75 C5.85301798 74.35799564 3.70744047 73.71129254 1.5625 73.0625 C0.36753906 72.70285156 -0.82742188 72.34320313 -2.05859375 71.97265625 C-5 71 -5 71 -6 70 C-6.11481183 68.17118867 -6.15965026 66.33794478 -6.17700195 64.50561523 C-6.18983719 63.33026718 -6.20267242 62.15491913 -6.21589661 60.94395447 C-6.22328354 59.66178543 -6.23067047 58.37961639 -6.23828125 57.05859375 C-6.246353 55.74721939 -6.25442474 54.43584503 -6.26274109 53.08473206 C-6.27778967 50.29957202 -6.28761461 47.51443765 -6.29516602 44.72924805 C-6.30618084 41.17732079 -6.34051285 37.62602867 -6.38033772 34.07432461 C-6.41294007 30.67327426 -6.41729649 27.27228823 -6.42578125 23.87109375 C-6.44328934 22.60309433 -6.46079742 21.33509491 -6.47883606 20.02867126 C-6.45930134 12.03325374 -5.91242329 5.91242329 0 0 Z " fill="#A83243" transform="translate(340,298)"/>
<path d="M0 0 C0.52625977 0.59514404 1.05251953 1.19028809 1.59472656 1.8034668 C4.39687975 4.36243678 7.01474041 5.61033087 10.484375 7.14453125 C11.12418808 7.43102539 11.76400116 7.71751953 12.42320251 8.01269531 C13.80563961 8.63069799 15.18990286 9.24462862 16.57577515 9.85488892 C20.30997782 11.49957339 24.03080085 13.17413662 27.75390625 14.84375 C28.52100418 15.18670609 29.28810211 15.52966217 30.07844543 15.88301086 C37.99440113 19.42832269 45.8435446 23.1112685 53.6875 26.8125 C63.99272318 31.66961204 74.32078059 36.46535667 84.71948242 41.12036133 C85.95468628 41.67566528 85.95468628 41.67566528 87.21484375 42.2421875 C87.92761475 42.5604248 88.64038574 42.87866211 89.37475586 43.20654297 C91 44 91 44 92 45 C92.04092937 47.33297433 92.04241723 49.66705225 92 52 C84.19103142 49.68495179 76.9968358 46.30266237 69.67471313 42.79220581 C65.91761865 40.99166227 62.15210808 39.20889743 58.38671875 37.42578125 C57.61297409 37.059048 56.83922943 36.69231476 56.04203796 36.31446838 C45.95880525 31.54593645 35.79372588 26.95766557 25.62719727 22.37017822 C17.38551833 18.64091493 9.20022251 14.82677051 1 11 C1.33 48.62 1.66 86.24 2 125 C1.34 125 0.68 125 0 125 C-0.15426463 110.03097664 -0.30228601 95.06190112 -0.4429636 80.09274387 C-0.50843307 73.14163064 -0.57591191 66.19054796 -0.64819336 59.23950195 C-0.71797075 52.5287114 -0.78205285 45.81788832 -0.84269524 39.10700798 C-0.86673117 36.54941917 -0.89266076 33.99184743 -0.92053413 31.43429756 C-0.95931141 27.84628081 -0.99129511 24.25826192 -1.02172852 20.67016602 C-1.03467453 19.61783783 -1.04762054 18.56550964 -1.06095886 17.48129272 C-1.10311943 11.56153345 -0.77631731 5.87033103 0 0 Z " fill="#B34C5B" transform="translate(295,248)"/>
<path d="M0 0 C0 0.66 0 1.32 0 2 C-1.45537568 2.83848804 -2.91440373 3.67063934 -4.375 4.5 C-5.18710937 4.9640625 -5.99921875 5.428125 -6.8359375 5.90625 C-9 7 -9 7 -11 7 C-11 17.23 -11 27.46 -11 38 C-15.11323455 33.88676545 -17.46747114 29.13671444 -20.25 24.0625 C-20.8171875 23.06025391 -21.384375 22.05800781 -21.96875 21.02539062 C-22.49984375 20.05923828 -23.0309375 19.09308594 -23.578125 18.09765625 C-24.31144043 16.77519897 -24.31144043 16.77519897 -25.05957031 15.42602539 C-26.11266176 12.70936658 -26.15928492 11.64234388 -25 9 C-18.25821207 3.82665804 -8.58074827 0 0 0 Z " fill="#AE4050" transform="translate(342,221)"/>
<path d="M0 0 C6 2 6 2 14 6 C14 13.26 14 20.52 14 28 C8 26 8 26 0 22 C0 14.74 0 7.48 0 0 Z " fill="#A83344" transform="translate(334,234)"/>
<path d="M0 0 C0.66 0 1.32 0 2 0 C2.25652344 0.59167969 2.51304687 1.18335938 2.77734375 1.79296875 C5.94162406 8.32395807 9.38465325 11.13190849 16 14 C16 14.66 16 15.32 16 16 C14.9275 16.4125 13.855 16.825 12.75 17.25 C7.90011164 19.36204816 5.36204816 21.90011164 3.25 26.75 C2.8375 27.8225 2.425 28.895 2 30 C0 29 0 29 -1.25 25.75 C-2.98960502 21.4800604 -5.19471985 19.5875905 -9 17 C-11.72113503 16.13457301 -11.72113503 16.13457301 -14 16 C-14 15.34 -14 14.68 -14 14 C-13.22076172 13.67128906 -13.22076172 13.67128906 -12.42578125 13.3359375 C-7.23631913 10.97621905 -4.24089275 8.71402581 -1 4 C-0.14720662 1.78264561 -0.14720662 1.78264561 0 0 Z " fill="#919191" transform="translate(294,398)"/>
<path d="M0 0 C24.1102116 -1.24427452 24.1102116 -1.24427452 33 6 C34 7 34 7 34.09765625 9.28515625 C34.08605469 10.20167969 34.07445312 11.11820313 34.0625 12.0625 C34.05347656 12.98160156 34.04445313 13.90070313 34.03515625 14.84765625 C34.02355469 15.55792969 34.01195312 16.26820313 34 17 C32.1875 18.0625 32.1875 18.0625 30 19 C29.01 18.67 28.02 18.34 27 18 C27 15.69 27 13.38 27 11 C20.81346489 7.41982922 16.09775612 6.36993136 9 6.25 C8.12988281 6.22035156 7.25976562 6.19070312 6.36328125 6.16015625 C4.24266784 6.09024592 2.12133437 6.04276884 0 6 C0 4.02 0 2.04 0 0 Z " fill="#AB3849" transform="translate(286,174)"/>
<path d="M0 0 C6 1 6 1 7.6796875 2.62890625 C8.07414062 3.26699219 8.46859375 3.90507813 8.875 4.5625 C9.28492187 5.20316406 9.69484375 5.84382812 10.1171875 6.50390625 C10.40851563 6.99761719 10.69984375 7.49132812 11 8 C11.33 5.36 11.66 2.72 12 0 C13.65 0.33 15.3 0.66 17 1 C17 6.94 17 12.88 17 19 C12 19 12 19 10.41796875 17.46875 C9.80888672 16.49421875 9.80888672 16.49421875 9.1875 15.5 C8.55908203 14.52546875 8.55908203 14.52546875 7.91796875 13.53125 C7.61503906 13.0259375 7.31210938 12.520625 7 12 C6.67 14.31 6.34 16.62 6 19 C4.35 19 2.7 19 1 19 C0.67 12.73 0.34 6.46 0 0 Z " fill="#848484" transform="translate(112,531)"/>
<path d="M0 0 C6.12767526 1.22553505 6.48181521 2.27558042 10 7 C10.66 4.69 11.32 2.38 12 0 C13.32 0.33 14.64 0.66 16 1 C16 6.94 16 12.88 16 19 C10.54050926 17.90810185 9.98528919 17.31208438 7 13 C6.67 14.98 6.34 16.96 6 19 C4.35 19 2.7 19 1 19 C0.67 12.73 0.34 6.46 0 0 Z " fill="#AEAEAE" transform="translate(382,531)"/>
<path d="M0 0 C13.15941472 -0.84917511 23.05153767 -0.96251806 34 7 C34 9.31 34 11.62 34 14 C30.2397015 13.41892368 27.46964968 12.34800504 24.1875 10.4375 C23.39730469 9.98246094 22.60710937 9.52742187 21.79296875 9.05859375 C21.20128906 8.70925781 20.60960937 8.35992187 20 8 C20 7.34 20 6.68 20 6 C13.4 6 6.8 6 0 6 C0 4.02 0 2.04 0 0 Z " fill="#A93546" transform="translate(286,197)"/>
<path d="M0 0 C3.20778162 2.19479795 3.89134076 3.63327506 5 7.375 C5 11.83668484 3.81998243 13.61602108 1 17 C-2.10048928 18.55024464 -4.57894218 18.28992015 -8 18 C-10.75329021 16.20437595 -12.52627461 14.94745078 -14 12 C-14.39069343 7.85864965 -14.43382227 5.68813188 -12.1875 2.125 C-8.26403475 -1.68636625 -5.10164568 -1.16353322 0 0 Z M-9 6 C-9.33333333 8.5 -9.33333333 8.5 -9 11 C-7.17296773 13.2491908 -7.17296773 13.2491908 -4.5 13.25 C-1.82703227 13.2491908 -1.82703227 13.2491908 0 11 C-0.18757062 7.17435335 -0.18757062 7.17435335 -2 4 C-5.961168 3.60909667 -5.961168 3.60909667 -9 6 Z " fill="#9A9A9A" transform="translate(454,532)"/>
<path d="M0 0 C3.20778162 2.19479795 3.89134076 3.63327506 5 7.375 C5 11 5 11 3.625 14.375 C0.45683703 17.54316297 -1.43177327 18.02256585 -5.80859375 18.24609375 C-9.13298239 17.87276668 -10.78806237 16.41930678 -13 14 C-14.55024464 10.89951072 -14.28992015 8.42105782 -14 5 C-10.1746717 -1.06776214 -6.82318725 -1.55616551 0 0 Z M-9 6 C-9.33333333 8.5 -9.33333333 8.5 -9 11 C-7.17296773 13.2491908 -7.17296773 13.2491908 -4.5 13.25 C-1.82703227 13.2491908 -1.82703227 13.2491908 0 11 C-0.18757062 7.17435335 -0.18757062 7.17435335 -2 4 C-5.961168 3.60909667 -5.961168 3.60909667 -9 6 Z " fill="#9C9C9C" transform="translate(271,532)"/>
<path d="M0 0 C3.18686375 1.21372045 4.30218472 2.69561956 5.8359375 5.69921875 C6.49098459 8.54350217 6.5893598 10.86817739 5.8359375 13.69921875 C2.94833492 16.99933598 1.12346198 18.48901067 -3.2265625 19.19921875 C-6.60434526 18.624277 -8.49424002 17.84990908 -11.1640625 15.69921875 C-12.86562233 12.83750449 -13.1640625 11.02793087 -13.1640625 7.69921875 C-12.07989599 4.44671923 -10.74599863 2.61384108 -7.98046875 0.5546875 C-5.17635063 -0.76596168 -2.99341782 -0.62506234 0 0 Z M-6.1640625 4.69921875 C-8.47949457 7.46909951 -8.47949457 7.46909951 -7.8515625 10.32421875 C-7.3899111 12.6342384 -7.3899111 12.6342384 -6.1640625 13.69921875 C-3.1640625 13.86588542 -3.1640625 13.86588542 -0.1640625 13.69921875 C1.16781543 12.58755011 1.16781543 12.58755011 1.0234375 9.76171875 C1.16872483 6.59029016 1.16872483 6.59029016 -1.1640625 4.69921875 C-3.6640625 4.28255208 -3.6640625 4.28255208 -6.1640625 4.69921875 Z " fill="#9A9A9A" transform="translate(415.1640625,531.30078125)"/>
<path d="M0 0 C-0.33 1.65 -0.66 3.3 -1 5 C-3.31 5 -5.62 5 -8 5 C-8.66 7.31 -9.32 9.62 -10 12 C-9.01 12 -8.02 12 -7 12 C-6.67 10.35 -6.34 8.7 -6 7 C-4.00045254 6.95745644 -1.99958364 6.95919217 0 7 C1.89128342 8.89128342 1.2366852 11.57067726 1.328125 14.08984375 C1.21984375 14.72019531 1.1115625 15.35054687 1 16 C-2.76875875 18.51250583 -4.53150134 18.53016086 -9 18 C-12.4375 16 -12.4375 16 -15 13 C-15.74668825 10.17284448 -15.68186893 7.83634556 -15 5 C-10.85051772 -1.725023 -7.0616862 -1.04188813 0 0 Z " fill="#9B9B9B" transform="translate(478,532)"/>
<path d="M0 0 C2.0625 0.4375 2.0625 0.4375 4 1 C4 2.98 4 4.96 4 7 C6.31 7 8.62 7 11 7 C11 5.02 11 3.04 11 1 C12.32 0.67 13.64 0.34 15 0 C15 6.27 15 12.54 15 19 C13.68 19 12.36 19 11 19 C11 16.69 11 14.38 11 12 C8.69 12 6.38 12 4 12 C4 14.31 4 16.62 4 19 C2.35 19 0.7 19 -1 19 C-1.02683987 16.02077407 -1.04676037 13.04178705 -1.0625 10.0625 C-1.07087891 9.21236328 -1.07925781 8.36222656 -1.08789062 7.48632812 C-1.09111328 6.67744141 -1.09433594 5.86855469 -1.09765625 5.03515625 C-1.10289307 4.2862915 -1.10812988 3.53742676 -1.11352539 2.76586914 C-1 1 -1 1 0 0 Z " fill="#9E9E9E" transform="translate(361,531)"/>
<path d="M0 0 C2.07324138 3.10986207 2.27392186 3.89108387 2.25 7.4375 C2.25515625 8.19933594 2.2603125 8.96117187 2.265625 9.74609375 C1.97008731 12.25381801 1.33311941 13.86419249 0 16 C-2.87470493 17.43735246 -4.81894588 17.38172649 -8 17 C-10.64805967 14.8397408 -11.80854884 13.20893876 -12.34765625 9.8046875 C-12.4840861 6.21005744 -12.37504489 3.71437122 -10.6875 0.5 C-6.93577169 -2.83486961 -4.2833011 -1.82268132 0 0 Z M-6 3 C-7.20561184 3.98267859 -7.20561184 3.98267859 -7.09765625 5.84765625 C-7.08605469 6.57855469 -7.07445312 7.30945313 -7.0625 8.0625 C-7.041875 9.361875 -7.02125 10.66125 -7 12 C-5.68 12 -4.36 12 -3 12 C-3 9.03 -3 6.06 -3 3 C-3.99 3 -4.98 3 -6 3 Z " fill="#9B9B9B" transform="translate(323,569)"/>
<path d="M0 0 C1.20462891 -0.02126953 1.20462891 -0.02126953 2.43359375 -0.04296875 C4.5625 0.1875 4.5625 0.1875 6.5625 2.1875 C6.5625 3.1775 6.5625 4.1675 6.5625 5.1875 C4.2525 5.1875 1.9425 5.1875 -0.4375 5.1875 C-0.4375 5.8475 -0.4375 6.5075 -0.4375 7.1875 C1.2125 7.1875 2.8625 7.1875 4.5625 7.1875 C4.5625 8.5075 4.5625 9.8275 4.5625 11.1875 C2.9125 11.1875 1.2625 11.1875 -0.4375 11.1875 C-0.4375 12.1775 -0.4375 13.1675 -0.4375 14.1875 C1.8725 14.1875 4.1825 14.1875 6.5625 14.1875 C6.2325 15.8375 5.9025 17.4875 5.5625 19.1875 C1.9325 19.1875 -1.6975 19.1875 -5.4375 19.1875 C-5.46433987 16.20827407 -5.48426037 13.22928705 -5.5 10.25 C-5.50837891 9.39986328 -5.51675781 8.54972656 -5.52539062 7.67382812 C-5.52861328 6.86494141 -5.53183594 6.05605469 -5.53515625 5.22265625 C-5.54039307 4.4737915 -5.54562988 3.72492676 -5.55102539 2.95336914 C-5.32150608 -0.61676667 -3.04436197 0.0243549 0 0 Z " fill="#BABABA" transform="translate(236.4375,530.8125)"/>
<path d="M0 0 C1.20462891 -0.02126953 1.20462891 -0.02126953 2.43359375 -0.04296875 C4.5625 0.1875 4.5625 0.1875 6.5625 2.1875 C6.5625 3.1775 6.5625 4.1675 6.5625 5.1875 C4.2525 5.1875 1.9425 5.1875 -0.4375 5.1875 C-0.4375 5.8475 -0.4375 6.5075 -0.4375 7.1875 C1.2125 7.1875 2.8625 7.1875 4.5625 7.1875 C4.5625 8.5075 4.5625 9.8275 4.5625 11.1875 C2.9125 11.1875 1.2625 11.1875 -0.4375 11.1875 C-0.4375 12.1775 -0.4375 13.1675 -0.4375 14.1875 C1.8725 14.1875 4.1825 14.1875 6.5625 14.1875 C6.2325 15.8375 5.9025 17.4875 5.5625 19.1875 C1.9325 19.1875 -1.6975 19.1875 -5.4375 19.1875 C-5.46433987 16.20827407 -5.48426037 13.22928705 -5.5 10.25 C-5.50837891 9.39986328 -5.51675781 8.54972656 -5.52539062 7.67382812 C-5.52861328 6.86494141 -5.53183594 6.05605469 -5.53515625 5.22265625 C-5.54039307 4.4737915 -5.54562988 3.72492676 -5.55102539 2.95336914 C-5.32150608 -0.61676667 -3.04436197 0.0243549 0 0 Z " fill="#A2A2A2" transform="translate(330.4375,530.8125)"/>
<path d="M0 0 C1.32 0 2.64 0 4 0 C4.33 4.29 4.66 8.58 5 13 C6.32 13.33 7.64 13.66 9 14 C9 9.71 9 5.42 9 1 C10.32 0.67 11.64 0.34 13 0 C14.85765668 1.85765668 14.25942629 4.75832889 14.3125 7.25 C14.34988281 8.38953125 14.38726562 9.5290625 14.42578125 10.703125 C13.91657748 14.64595051 12.82491407 16.25143496 10 19 C6.71728602 19.547119 4.83684432 19.39283519 1.828125 17.98046875 C-0.53484878 15.42058049 -0.41297463 13.44184811 -0.3515625 10.04882812 C-0.31804687 9.31083984 -0.28453125 8.57285156 -0.25 7.8125 C-0.23195312 7.06291016 -0.21390625 6.31332031 -0.1953125 5.54101562 C-0.14824109 3.6934629 -0.07649766 1.84656841 0 0 Z " fill="#9B9B9B" transform="translate(195,531)"/>
<path d="M0 0 C1.98 0.66 3.96 1.32 6 2 C8.32786885 13.63934426 8.32786885 13.63934426 5.875 18 C3.10184376 19.47901666 1.08815875 19.38601984 -2 19 C-4.36132679 17.30697324 -4.93339653 16.35854868 -5.46875 13.4765625 C-5.55179633 5.89858499 -5.55179633 5.89858499 -3.875 3.16796875 C-2.5 1.8125 -2.5 1.8125 0 0 Z M0 5 C0 5.66 0 6.32 0 7 C0.66 7 1.32 7 2 7 C2 6.34 2 5.68 2 5 C1.34 5 0.68 5 0 5 Z M-1 12 C-0.67 12.99 -0.34 13.98 0 15 C0.99 14.67 1.98 14.34 3 14 C3 13.34 3 12.68 3 12 C1.68 12 0.36 12 -1 12 Z " fill="#939393" transform="translate(286,567)"/>
<path d="M0 0 C0.1081866 2.58445773 0.18737237 5.16437352 0.25 7.75 C0.30027344 8.84441406 0.30027344 8.84441406 0.3515625 9.9609375 C0.41441227 13.41767502 0.3303128 15.53634992 -1.703125 18.390625 C-4.06862188 20.048082 -6.26515758 21.08838586 -9 22 C-9.14515677 18.89632503 -9.23400853 15.79351973 -9.3125 12.6875 C-9.35439453 11.80642578 -9.39628906 10.92535156 -9.43945312 10.01757812 C-9.48568915 7.58556315 -9.4672464 5.38795669 -9 3 C-5.82265726 0.05234468 -4.37320403 0 0 0 Z " fill="#A93545" transform="translate(285,181)"/>
<path d="M0 0 C0 1.65 0 3.3 0 5 C-1.65 5 -3.3 5 -5 5 C-4.195625 5.556875 -3.39125 6.11375 -2.5625 6.6875 C0 9 0 9 1.0625 11.5 C1 14 1 14 -0.5625 16.3125 C-3.61636622 18.42671508 -5.35572485 18.39611686 -9 18 C-9.66 17.67 -10.32 17.34 -11 17 C-11 15.35 -11 13.7 -11 12 C-9.02 12 -7.04 12 -5 12 C-5.99 11.278125 -6.98 10.55625 -8 9.8125 C-10.27913142 7.90602277 -10.91643105 7.3509896 -11.625 4.375 C-11 2 -11 2 -9.4375 0.125 C-6.03118195 -1.44714679 -3.59718087 -0.76094211 0 0 Z " fill="#9C9C9C" transform="translate(145,532)"/>
<path d="M0 0 C0 1.65 0 3.3 0 5 C-1.134375 4.979375 -2.26875 4.95875 -3.4375 4.9375 C-6.81575674 4.58422523 -6.81575674 4.58422523 -8 6 C-8.16666667 8.5 -8.16666667 8.5 -8 11 C-6.81575674 12.41577477 -6.81575674 12.41577477 -3.4375 12.0625 C-1.7359375 12.0315625 -1.7359375 12.0315625 0 12 C0 13.65 0 15.3 0 17 C-2.85324437 18.42662219 -4.83454549 18.31033868 -8 18 C-10.69990662 16.20006226 -12.5418865 14.916227 -14 12 C-14.39069343 7.85864965 -14.43382227 5.68813188 -12.1875 2.125 C-8.20618908 -1.74255918 -5.17125857 -0.87813825 0 0 Z " fill="#9C9C9C" transform="translate(355,532)"/>
<path d="M0 0 C2.3125 0.1875 2.3125 0.1875 5 1 C6.8125 3.5625 6.8125 3.5625 8 6 C8.86625 4.515 8.86625 4.515 9.75 3 C10.4925 2.01 11.235 1.02 12 0 C13.32 0 14.64 0 16 0 C15.38022648 2.91164434 14.43921238 5.21451001 13 7.8125 C11.03597682 11.60534187 10.35330198 14.76037624 10 19 C8.35 19 6.7 19 5 19 C4.89042969 18.34773437 4.78085937 17.69546875 4.66796875 17.0234375 C3.72718902 11.83767606 2.51161747 7.68074165 0 3 C0 2.01 0 1.02 0 0 Z " fill="#9F9F9F" transform="translate(482,531)"/>
<path d="M0 0 C3.96 0 7.92 0 12 0 C12 1.65 12 3.3 12 5 C10.68 5 9.36 5 8 5 C8 9.62 8 14.24 8 19 C6.35 19 4.7 19 3 19 C3 14.38 3 9.76 3 5 C1.68 5 0.36 5 -1 5 C-0.67 3.35 -0.34 1.7 0 0 Z " fill="#CFCFCF" transform="translate(308,531)"/>
<path d="M0 0 C3.96 0 7.92 0 12 0 C12 1.65 12 3.3 12 5 C10.68 5 9.36 5 8 5 C8 9.62 8 14.24 8 19 C6.35 19 4.7 19 3 19 C3 14.38 3 9.76 3 5 C1.68 5 0.36 5 -1 5 C-0.67 3.35 -0.34 1.7 0 0 Z " fill="#CFCFCF" transform="translate(178,531)"/>
<path d="M0 0 C3.63 0 7.26 0 11 0 C10.67 1.65 10.34 3.3 10 5 C8.02 5 6.04 5 4 5 C4 5.66 4 6.32 4 7 C5.98 7 7.96 7 10 7 C10 8.32 10 9.64 10 11 C8.02 11 6.04 11 4 11 C4 13.64 4 16.28 4 19 C2.68 19 1.36 19 0 19 C0 12.73 0 6.46 0 0 Z " fill="#A8A8A8" transform="translate(282,531)"/>
<path d="M0 0 C2.64 0 5.28 0 8 0 C8 4.29 8 8.58 8 13 C9.32 13 10.64 13 12 13 C12 14.65 12 16.3 12 18 C8.04 18 4.08 18 0 18 C0 16.35 0 14.7 0 13 C1.32 13 2.64 13 4 13 C4 10.03 4 7.06 4 4 C2.68 3.67 1.36 3.34 0 3 C0 2.01 0 1.02 0 0 Z " fill="#9E9E9E" transform="translate(266,568)"/>
<path d="M0 0 C4.29 0 8.58 0 13 0 C12.67 1.65 12.34 3.3 12 5 C10.68 5 9.36 5 8 5 C8 9.62 8 14.24 8 19 C6.68 19 5.36 19 4 19 C4 14.38 4 9.76 4 5 C2.35 5 0.7 5 -1 5 C-0.67 3.35 -0.34 1.7 0 0 Z " fill="#898989" transform="translate(214,531)"/>
<path d="M0 0 C4.29 0 8.58 0 13 0 C12.67 1.65 12.34 3.3 12 5 C10.68 5 9.36 5 8 5 C8 9.62 8 14.24 8 19 C6.68 19 5.36 19 4 19 C4 14.38 4 9.76 4 5 C2.35 5 0.7 5 -1 5 C-0.67 3.35 -0.34 1.7 0 0 Z " fill="#A0A0A0" transform="translate(150,531)"/>
<path d="M0 0 C3.63 0 7.26 0 11 0 C10.48969179 5.86854438 9.25204035 12.00716158 6 17 C3.359375 17.7890625 3.359375 17.7890625 1 18 C1.59104765 13.15340923 2.97944157 9.39251833 5 5 C3.35 4.67 1.7 4.34 0 4 C0 2.68 0 1.36 0 0 Z " fill="#9D9D9D" transform="translate(297,568)"/>
<path d="M0 0 C1.32 0 2.64 0 4 0 C4 4.62 4 9.24 4 14 C6.31 14 8.62 14 11 14 C10.67 15.65 10.34 17.3 10 19 C6.7 19 3.4 19 0 19 C0 12.73 0 6.46 0 0 Z " fill="#BCBCBC" transform="translate(426,531)"/>
<path d="M0 0 C1.98 0.495 1.98 0.495 4 1 C4 6.94 4 12.88 4 19 C2.35 19 0.7 19 -1 19 C-1.02683987 16.02077407 -1.04676037 13.04178705 -1.0625 10.0625 C-1.07087891 9.21236328 -1.07925781 8.36222656 -1.08789062 7.48632812 C-1.09111328 6.67744141 -1.09433594 5.86855469 -1.09765625 5.03515625 C-1.10289307 4.2862915 -1.10812988 3.53742676 -1.11352539 2.76586914 C-1 1 -1 1 0 0 Z " fill="#AAAAAA" transform="translate(168,531)"/>
<path d="M0 0 C1.98 0.495 1.98 0.495 4 1 C4 6.94 4 12.88 4 19 C2.35 19 0.7 19 -1 19 C-1.02683987 16.02077407 -1.04676037 13.04178705 -1.0625 10.0625 C-1.07087891 9.21236328 -1.07925781 8.36222656 -1.08789062 7.48632812 C-1.09111328 6.67744141 -1.09433594 5.86855469 -1.09765625 5.03515625 C-1.10289307 4.2862915 -1.10812988 3.53742676 -1.11352539 2.76586914 C-1 1 -1 1 0 0 Z " fill="#A3A3A3" transform="translate(103,531)"/>
<path d="M0 0 C6.27 0 12.54 0 19 0 C19 4.29 19 8.58 19 13 C12.73 13 6.46 13 0 13 C0 12.34 0 11.68 0 11 C5.61 11 11.22 11 17 11 C17 8.03 17 5.06 17 2 C11.39 1.67 5.78 1.34 0 1 C0 0.67 0 0.34 0 0 Z " fill="#BF6975" transform="translate(229,471)"/>
<path d="M0 0 C0.33 0 0.66 0 1 0 C0.4262611 9.08923201 -0.61050442 18.00200434 -2 27 C-2.33 27 -2.66 27 -3 27 C-3.33 25.02 -3.66 23.04 -4 21 C-4.99 21.66 -5.98 22.32 -7 23 C-1.88435374 1.88435374 -1.88435374 1.88435374 0 0 Z " fill="#C77D87" transform="translate(295,102)"/>
<path d="M0 0 C-0.33 1.65 -0.66 3.3 -1 5 C-3.31 5 -5.62 5 -8 5 C-8.66 6.98 -9.32 8.96 -10 11 C-12.09785412 8.44609064 -13.78252874 6.37080456 -14 3 C-10.20886769 -2.11802861 -5.56285337 -0.82074886 0 0 Z " fill="#AAAAAA" transform="translate(478,532)"/>
<path d="M0 0 C0.33 0.66 0.66 1.32 1 2 C0.34 2.66 -0.32 3.32 -1 4 C-1.33 4.66 -1.66 5.32 -2 6 C-2.33 5.67 -2.66 5.34 -3 5 C-5.45809998 4.7499227 -5.45809998 4.7499227 -8 5 C-8.66 5.66 -9.32 6.32 -10 7 C-10.99 7.33 -11.98 7.66 -13 8 C-13.66 8.66 -14.32 9.32 -15 10 C-14.80786857 5.86917424 -14.19706754 4.22590669 -11.4375 1.0625 C-7.54531957 -1.88497644 -4.56805298 -1.1613694 0 0 Z " fill="#9E9E9E" transform="translate(417,532)"/>
<path d="M0 0 C3.63 0 7.26 0 11 0 C11 0.66 11 1.32 11 2 C9.68 2 8.36 2 7 2 C7 6.62 7 11.24 7 16 C6.01 16 5.02 16 4 16 C4 11.38 4 6.76 4 2 C2.68 2 1.36 2 0 2 C0 1.34 0 0.68 0 0 Z " fill="#7B7B7B" transform="translate(308,533)"/>
<path d="M0 0 C3.63 0 7.26 0 11 0 C11 0.66 11 1.32 11 2 C9.68 2 8.36 2 7 2 C7 6.62 7 11.24 7 16 C6.01 16 5.02 16 4 16 C4 11.38 4 6.76 4 2 C2.68 2 1.36 2 0 2 C0 1.34 0 0.68 0 0 Z " fill="#7B7B7B" transform="translate(178,533)"/>
<path d="M0 0 C0 0.33 0 0.66 0 1 C-1.65 1.33 -3.3 1.66 -5 2 C-4.01 2.66 -3.02 3.32 -2 4 C-2.99 4.33 -3.98 4.66 -5 5 C-5.33 7.64 -5.66 10.28 -6 13 C-6.33 13 -6.66 13 -7 13 C-7.33 10.36 -7.66 7.72 -8 5 C-7.938125 6.918125 -7.938125 6.918125 -7.875 8.875 C-7.8046875 11.0546875 -7.8046875 11.0546875 -8 13 C-8.66 13.66 -9.32 14.32 -10 15 C-11.7196266 11.5607468 -11.38219964 7.76835438 -11 4 C-8.34197481 -1.06290512 -5.25150286 -1.27739259 0 0 Z " fill="#B3B3B3" transform="translate(322,568)"/>
<path d="M0 0 C2.97 0 5.94 0 9 0 C9.33 0.66 9.66 1.32 10 2 C3.25 2.125 3.25 2.125 1 1 C1.14168137 2.43791516 1.28851043 3.8753237 1.4375 5.3125 C1.51871094 6.11300781 1.59992188 6.91351562 1.68359375 7.73828125 C1.95265693 10.16087179 1.95265693 10.16087179 3 13 C5.31 13 7.62 13 10 13 C10 13.99 10 14.98 10 16 C6.7 16 3.4 16 0 16 C0 10.72 0 5.44 0 0 Z " fill="#828282" transform="translate(232,533)"/>
<path d="M0 0 C1.65 0.33 3.3 0.66 5 1 C5 6.94 5 12.88 5 19 C3.35 19 1.7 19 0 19 C-0.33 18.34 -0.66 17.68 -1 17 C0.32 17.33 1.64 17.66 3 18 C3 12.72 3 7.44 3 2 C2.34 2 1.68 2 1 2 C1 4.97 1 7.94 1 11 C0.34 10.67 -0.32 10.34 -1 10 C-0.67 6.7 -0.34 3.4 0 0 Z " fill="#BFBFBF" transform="translate(124,531)"/>
<path d="M0 0 C0.66 0 1.32 0 2 0 C2 4.29 2 8.58 2 13 C4.31 13 6.62 13 9 13 C9 13.99 9 14.98 9 16 C6.03 16 3.06 16 0 16 C0 10.72 0 5.44 0 0 Z " fill="#7A7A7A" transform="translate(427,533)"/>
<path d="M0 0 C3.63 0 7.26 0 11 0 C11 1.65 11 3.3 11 5 C9.35 5.66 7.7 6.32 6 7 C6 6.01 6 5.02 6 4 C4.02 4 2.04 4 0 4 C0 2.68 0 1.36 0 0 Z " fill="#979797" transform="translate(297,568)"/>
<path d="M0 0 C1.32 0 2.64 0 4 0 C3.29445932 3.66881155 1.72264494 6.70450534 0 10 C-0.33 9.34 -0.66 8.68 -1 8 C-3.02463255 7.34786708 -3.02463255 7.34786708 -5 7 C-4.26708288 5.8225266 -3.51296199 4.65823146 -2.75 3.5 C-2.33234375 2.8503125 -1.9146875 2.200625 -1.484375 1.53125 C-0.74960937 0.77328125 -0.74960937 0.77328125 0 0 Z " fill="#A6A6A6" transform="translate(494,531)"/>
<path d="M0 0 C2.97 0.495 2.97 0.495 6 1 C4.68 1.33 3.36 1.66 2 2 C2 7.28 2 12.56 2 18 C2.99 18 3.98 18 5 18 C5 15.03 5 12.06 5 9 C5.66 9 6.32 9 7 9 C6.67 12.3 6.34 15.6 6 19 C4.35 19 2.7 19 1 19 C0.67 12.73 0.34 6.46 0 0 Z " fill="#D1D1D1" transform="translate(112,531)"/>
<path d="M0 0 C2.64 0 5.28 0 8 0 C8 0.99 8 1.98 8 3 C6.02 3 4.04 3 2 3 C2 5.31 2 7.62 2 10 C1.34 10 0.68 10 0 10 C0 6.7 0 3.4 0 0 Z " fill="#7B7B7B" transform="translate(283,539)"/>
<path d="M0 0 C4.29 0 8.58 0 13 0 C12.67 1.32 12.34 2.64 12 4 C12 3.34 12 2.68 12 2 C8.37 2 4.74 2 1 2 C1 2.66 1 3.32 1 4 C1.99 4.33 2.98 4.66 4 5 C2.35 5 0.7 5 -1 5 C-0.67 3.35 -0.34 1.7 0 0 Z " fill="#CACACA" transform="translate(214,531)"/>
<path d="M0 0 C0.99 0.33 1.98 0.66 3 1 C2.67 3.64 2.34 6.28 2 9 C0.68 9.33 -0.64 9.66 -2 10 C-2.25 3.375 -2.25 3.375 0 0 Z " fill="#919191" transform="translate(259,534)"/>
<path d="M0 0 C0.99 0.495 0.99 0.495 2 1 C2 3.97 2 6.94 2 10 C3.98 10 5.96 10 8 10 C7.67 11.32 7.34 12.64 7 14 C5.02 14 3.04 14 1 14 C0.06380187 10.84493858 -0.1057123 8.03413498 -0.0625 4.75 C-0.05347656 3.85796875 -0.04445313 2.9659375 -0.03515625 2.046875 C-0.02355469 1.37140625 -0.01195312 0.6959375 0 0 Z " fill="#838383" transform="translate(313,571)"/>
<path d="M0 0 C2.64 0.33 5.28 0.66 8 1 C7.67 1.99 7.34 2.98 7 4 C7.33 4.66 7.66 5.32 8 6 C2.25 6.125 2.25 6.125 0 5 C0 3.35 0 1.7 0 0 Z " fill="#ADADAD" transform="translate(134,544)"/>
<path d="M0 0 C1.98 0.66 3.96 1.32 6 2 C5.67 2.66 5.34 3.32 5 4 C4.01 4 3.02 4 2 4 C-0.16666667 4.83333333 -0.16666667 4.83333333 -1 7 C-1.98020375 8.0194119 -2.97803008 9.02246356 -4 10 C-4.8125 7.8125 -4.8125 7.8125 -5 5 C-2.5625 2.1875 -2.5625 2.1875 0 0 Z " fill="#AEAEAE" transform="translate(286,567)"/>
<path d="M0 0 C0.33 0 0.66 0 1 0 C1.12375 0.804375 1.2475 1.60875 1.375 2.4375 C1.58125 3.283125 1.7875 4.12875 2 5 C2.66 5.33 3.32 5.66 4 6 C3.67 8.97 3.34 11.94 3 15 C2.01 15 1.02 15 0 15 C0 10.05 0 5.1 0 0 Z " fill="#7D7D7D" transform="translate(384,534)"/>
<path d="M0 0 C2.31 0 4.62 0 7 0 C6.67 1.65 6.34 3.3 6 5 C3.36 4.67 0.72 4.34 -2 4 C-1.34 2.68 -0.68 1.36 0 0 Z " fill="#979797" transform="translate(471,532)"/>
<path d="M0 0 C0.99 0 1.98 0 3 0 C3 5.28 3 10.56 3 16 C2.67 16 2.34 16 2 16 C1.855625 14.865625 1.71125 13.73125 1.5625 12.5625 C1.38828522 9.19222799 1.38828522 9.19222799 0 8 C-0.14115161 5.32941149 -0.04247107 2.67567762 0 0 Z " fill="#7B7B7B" transform="translate(394,533)"/>
<path d="M0 0 C1.98 0.66 3.96 1.32 6 2 C4.02 2.99 4.02 2.99 2 4 C1.67 9.94 1.34 15.88 1 22 C0.67 22 0.34 22 0 22 C0 14.74 0 7.48 0 0 Z " fill="#B95B69" transform="translate(334,234)"/>
<path d="M0 0 C1.98 0.495 1.98 0.495 4 1 C4 3.97 4 6.94 4 10 C3.01 9.67 2.02 9.34 1 9 C0.234375 7.1875 0.234375 7.1875 -0.25 5 C-0.42015625 4.278125 -0.5903125 3.55625 -0.765625 2.8125 C-0.84296875 2.214375 -0.9203125 1.61625 -1 1 C-0.67 0.67 -0.34 0.34 0 0 Z " fill="#838383" transform="translate(416,534)"/>
<path d="M0 0 C1.98 0 3.96 0 6 0 C6 1.65 6 3.3 6 5 C3.36 4.67 0.72 4.34 -2 4 C-1.34 2.68 -0.68 1.36 0 0 Z " fill="#999999" transform="translate(349,532)"/>
<path d="M0 0 C0.33 0.99 0.66 1.98 1 3 C3.31 3 5.62 3 8 3 C8 3.99 8 4.98 8 6 C5.03 6 2.06 6 -1 6 C-0.67 4.02 -0.34 2.04 0 0 Z " fill="#7C7C7C" transform="translate(234,543)"/>
<path d="M0 0 C0.99 0.33 1.98 0.66 3 1 C3.1953125 7.0546875 3.1953125 7.0546875 3 9 C2.34 9.66 1.68 10.32 1 11 C-0.20272819 8.59454362 -0.10071472 7.05003047 -0.0625 4.375 C-0.05347656 3.55773437 -0.04445313 2.74046875 -0.03515625 1.8984375 C-0.02355469 1.27195312 -0.01195312 0.64546875 0 0 Z " fill="#A8A8A8" transform="translate(311,572)"/>
<path d="M0 0 C0.66 0.66 1.32 1.32 2 2 C4.06874034 2.6425235 4.06874034 2.6425235 6 3 C4.73581754 3.69965443 3.46334598 4.38434763 2.1875 5.0625 C1.47980469 5.44535156 0.77210938 5.82820313 0.04296875 6.22265625 C-2 7 -2 7 -5 6 C-3.35 4.02 -1.7 2.04 0 0 Z " fill="#C2707C" transform="translate(208,287)"/>
<path d="M0 0 C0 0.66 0 1.32 0 2 C-6.75 6 -6.75 6 -9 6 C-9.33 4.68 -9.66 3.36 -10 2 C-8.7090864 1.66376204 -7.41723903 1.33110751 -6.125 1 C-5.40570313 0.814375 -4.68640625 0.62875 -3.9453125 0.4375 C-2 0 -2 0 0 0 Z " fill="#C9808A" transform="translate(342,221)"/>
<path d="M0 0 C2.1875 0.3125 2.1875 0.3125 4 1 C3.67 1.99 3.34 2.98 3 4 C3.99 4.66 4.98 5.32 6 6 C0.46153846 6.36923077 0.46153846 6.36923077 -1.875 4.5 C-2.24625 4.005 -2.6175 3.51 -3 3 C-1.75 1.4375 -1.75 1.4375 0 0 Z " fill="#ABABAB" transform="translate(199,544)"/>
<path d="M0 0 C5.61 0 11.22 0 17 0 C17 0.33 17 0.66 17 1 C16.08476562 1.03738281 15.16953125 1.07476562 14.2265625 1.11328125 C13.03804688 1.17902344 11.84953125 1.24476563 10.625 1.3125 C9.44164062 1.37050781 8.25828125 1.42851562 7.0390625 1.48828125 C6.03617187 1.65714844 5.03328125 1.82601563 4 2 C3.01 3.485 3.01 3.485 2 5 C1.34 3.35 0.68 1.7 0 0 Z " fill="#C06B77" transform="translate(389,446)"/>
<path d="M0 0 C2.0625 0.4375 2.0625 0.4375 4 1 C4 1.66 4 2.32 4 3 C-0.38461538 6 -0.38461538 6 -3 6 C-1.125 1.125 -1.125 1.125 0 0 Z " fill="#B95A68" transform="translate(361,308)"/>
<path d="M0 0 C0.33 0 0.66 0 1 0 C0.67 4.29 0.34 8.58 0 13 C-0.33 13 -0.66 13 -1 13 C-1.2236337 11.58566794 -1.42826476 10.16832382 -1.625 8.75 C-1.74101562 7.96109375 -1.85703125 7.1721875 -1.9765625 6.359375 C-2.00319395 3.67847541 -1.36592084 2.27305911 0 0 Z " fill="#DBACB3" transform="translate(295,102)"/>
<path d="M0 0 C0.66 0 1.32 0 2 0 C1.67 2.97 1.34 5.94 1 9 C0.34 9 -0.32 9 -1 9 C-0.67 6.03 -0.34 3.06 0 0 Z " fill="#B14656" transform="translate(292,110)"/>
<path d="M0 0 C-0.928125 0.3403125 -0.928125 0.3403125 -1.875 0.6875 C-4.61410209 2.37929835 -5.05024472 3.99244161 -6 7 C-6.99 5.68 -7.98 4.36 -9 3 C-7.14340032 -0.71319936 -3.69365381 -0.09982848 0 0 Z " fill="#B4B4B4" transform="translate(353,531)"/>
<path d="M0 0 C0 1.65 0 3.3 0 5 C-0.66 5 -1.32 5 -2 5 C-2.66 5.99 -3.32 6.98 -4 8 C-4.36780384 3.46375267 -4.36780384 3.46375267 -2.5625 1.1875 C-1 0 -1 0 0 0 Z " fill="#A12234" transform="translate(292,122)"/>
</svg>
