<svg xmlns="http://www.w3.org/2000/svg" width="760" height="869" viewBox="0 0 760 869" version="1.1"><path d="M 632 2.577 C 621.825 3.889, 577.275 9.258, 533 14.508 C 488.725 19.758, 449.125 24.843, 445 25.810 L 437.500 27.566 454.026 44.533 C 463.115 53.865, 473.321 64.859, 476.706 68.964 C 482.719 76.257, 482.824 76.487, 481.293 78.964 C 480.432 80.359, 474.773 85.775, 468.718 91 C 389.328 159.508, 304.280 262.669, 252.308 353.500 C 215.878 417.169, 192.562 478.623, 184.395 532.500 C 181.940 548.700, 181.429 583.001, 183.413 598.500 C 184.616 607.892, 185.530 611.842, 186.707 612.733 C 190.150 615.339, 191.264 612.148, 194.990 589 C 203.511 536.067, 225.307 475.595, 256.460 418.457 C 321.771 298.670, 407.636 194.666, 519.103 100.331 C 527.662 93.088, 535.415 86.016, 536.332 84.616 C 539.566 79.680, 538.483 77.053, 527.840 64.022 C 524.403 59.813, 524.226 57.245, 527.294 56.078 C 530.001 55.049, 612.839 45.808, 613.712 46.438 C 614.111 46.726, 598.999 104.476, 595.307 116.770 C 593.280 123.519, 591.260 128.919, 590.816 128.770 C 588.737 128.074, 580.964 121.029, 576 115.343 C 570.089 108.573, 566.462 106.416, 562.611 107.383 C 558.675 108.371, 517.296 142.529, 491.500 166.085 C 441.119 212.090, 395.747 265.330, 356.497 324.500 C 308.196 397.312, 275.435 466.400, 256.444 535.500 C 238.788 599.738, 234.382 648.150, 241.473 699.980 C 242.517 707.605, 243.382 710.806, 244.650 711.733 C 245.608 712.434, 246.711 712.668, 247.101 712.254 C 247.491 711.839, 248.344 707.225, 248.996 702 C 264.011 581.702, 308.640 464.891, 381.685 354.709 C 427.477 285.635, 481.364 224.827, 541 174.932 C 555.498 162.803, 559.286 160, 561.186 160 C 563.002 160, 570.345 167.646, 589.517 189.500 C 598.203 199.400, 606.391 207.934, 607.713 208.464 C 610.460 209.565, 611.117 208.880, 613.433 202.500 C 616.977 192.742, 665.086 6.543, 664.807 3.666 L 664.500 0.500 657.500 0.346 C 653.650 0.261, 642.175 1.265, 632 2.577 M 349 60.684 C 313.166 62.728, 264.243 74.657, 227 90.431 C 154.211 121.260, 93.433 175.971, 50.288 249.500 C 16.905 306.394, -0 369.280, 0 436.573 C 0 457.464, 0.044 457.917, 2.223 459.443 C 4.081 460.745, 8.295 461, 27.973 460.998 C 61.055 460.996, 61.519 460.691, 61.223 439.120 C 61.129 432.312, 60.799 425.941, 60.488 424.963 C 59.764 422.680, 57.962 421.992, 50.038 420.973 C 41.582 419.885, 40.631 418.641, 41.422 409.700 C 42.242 400.425, 45.613 379.889, 48.577 366.107 C 66.497 282.786, 112.245 213.726, 183.199 162.883 C 232.351 127.664, 281.800 108.353, 338 102.431 C 360.177 100.094, 403.333 100.920, 417 103.944 C 422.225 105.099, 427.762 105.769, 429.304 105.431 C 430.847 105.094, 435.544 102.053, 439.744 98.675 C 448.951 91.268, 464 76.292, 464 74.536 C 464 72.952, 454.421 68.632, 446.500 66.645 C 425.346 61.337, 382.963 58.746, 349 60.684 M 639.657 166.750 C 638.538 168.573, 630 202.469, 630 205.092 C 630 207.309, 633.048 211.906, 642.706 224.254 C 662.423 249.464, 672.923 266.168, 685.482 292.304 C 693.687 309.378, 696.579 316.419, 702.198 333 C 707.603 348.948, 711.756 365.203, 712.547 373.500 C 713.428 382.744, 715.924 388.370, 720.162 390.664 C 723.016 392.208, 725.522 392.427, 737.436 392.171 C 745.101 392.006, 752.183 391.437, 753.174 390.907 C 756.030 389.378, 756.351 385.661, 754.530 375.228 C 743.288 310.845, 717.152 252.604, 676.569 201.500 C 666.117 188.338, 649.559 169.950, 646.184 167.755 C 643.373 165.928, 640.440 165.476, 639.657 166.750 M 288.500 186.055 C 256.146 188.781, 226.929 201.932, 203.159 224.467 C 194.876 232.321, 184.049 244.986, 181.761 249.500 C 179.242 254.470, 180.783 256.388, 190.181 259.987 C 194.756 261.739, 203.547 265.159, 209.716 267.587 C 215.884 270.014, 221.308 272, 221.769 272 C 224.511 272, 237.250 254.162, 237.250 250.322 C 237.250 248.992, 235.757 244.962, 233.933 241.367 C 229.845 233.314, 228.913 225.093, 231.476 219.693 C 233.156 216.151, 237.632 212.299, 238.758 213.424 C 239.079 213.745, 238.815 216.291, 238.171 219.080 C 236.626 225.772, 236.693 230.329, 238.394 234.401 C 239.704 237.536, 243.347 241, 245.333 241 C 245.821 241, 251.008 236.360, 256.860 230.688 C 268.411 219.494, 275.281 214.324, 290.152 205.637 C 303.937 197.584, 309.870 195.021, 314.750 195.010 C 321.734 194.994, 319.870 197.260, 308.250 202.913 C 289.982 211.801, 277.673 220.364, 263.750 233.872 C 254.805 242.552, 253.421 245.278, 256.434 248.291 C 258.488 250.345, 266.964 251.223, 277.443 250.466 C 299.758 248.856, 311.066 243.386, 321.775 229.019 C 324.858 224.884, 331.276 216.763, 336.036 210.972 C 349.318 194.818, 349.507 194.092, 341.250 190.969 C 329.538 186.538, 307.324 184.469, 288.500 186.055 M 289.240 254.505 C 279.530 256.876, 267.168 257.322, 259.644 255.573 C 254.285 254.327, 251.917 254.215, 248.793 255.056 C 244.117 256.315, 237.689 262.532, 234.058 269.307 C 230.366 276.196, 231.265 277.263, 248.591 286.556 C 265.917 295.849, 268.164 296.702, 271.412 295.222 C 272.715 294.628, 279.343 286.366, 286.141 276.861 C 301.243 255.743, 300.251 257.368, 299.494 254.980 C 298.773 252.710, 296.941 252.625, 289.240 254.505 M 173.156 265.522 C 168.664 269.302, 161.633 289.056, 157.859 308.500 C 155.820 319.002, 156.105 348.283, 158.351 359 C 163.955 385.748, 176.670 411.430, 191.522 426 L 197.128 431.500 199.077 429.124 C 202.148 425.378, 202.491 422.071, 200.542 415.009 C 192.348 385.323, 191.829 356.805, 198.994 329.865 C 200.071 325.814, 200.964 320.813, 200.976 318.750 L 201 315 196.250 315.010 C 193.367 315.016, 189.535 315.943, 186.500 317.370 C 181.658 319.646, 172.965 327.876, 168.143 334.750 C 163.556 341.290, 163.422 336.973, 167.938 328.122 C 170.803 322.506, 177.322 315.482, 182.467 312.466 C 184.712 311.151, 189.463 309.337, 193.025 308.436 C 201.481 306.298, 204.920 304.100, 209.762 297.738 C 216.617 288.732, 218.815 282.609, 216.420 279.189 C 214.672 276.694, 183.198 263, 179.211 263 C 177.401 263, 174.930 264.029, 173.156 265.522 M 362.401 282.148 C 337.333 312.229, 311.631 348.592, 289.919 384.696 C 278.673 403.397, 250.048 457.759, 249.808 460.870 C 249.504 464.823, 250.240 466.082, 253.960 467.980 C 258.946 470.524, 262.413 470.546, 264.738 468.050 C 265.738 466.978, 268.942 460.116, 271.860 452.800 C 279.559 433.499, 304.067 384.523, 317.048 362.500 C 328.894 342.401, 353.170 305.214, 366.988 286 C 375.791 273.759, 377.936 269.536, 376.222 267.822 C 375.520 267.120, 371.152 271.647, 362.401 282.148 M 485 277.610 C 470.826 279.370, 453.512 284.022, 449.556 287.135 C 445.452 290.363, 444.798 293.182, 446.017 302.390 C 448.415 320.511, 449.908 322.056, 470.853 328.091 C 477.013 329.866, 482.742 331.822, 483.584 332.438 C 485.789 334.050, 491.141 359.758, 491.208 369.058 C 491.277 378.591, 488.887 384.369, 482.445 390.238 C 474.888 397.123, 470.804 401.288, 465.669 407.344 C 463.012 410.478, 459.029 413.965, 456.819 415.092 C 452.386 417.354, 444.792 417.757, 439.007 416.038 C 432.812 414.197, 429.116 414.730, 425.923 417.923 C 424.315 419.531, 423 421.507, 423 422.314 C 423 424.639, 430.356 426.980, 442.268 428.447 C 452.132 429.661, 453.550 430.092, 456.072 432.650 C 457.619 434.217, 463.680 444.500, 469.541 455.500 C 478.276 471.892, 480.188 476.242, 480.139 479.614 C 480.020 487.700, 470.834 508.219, 464.944 513.551 C 462.998 515.314, 461.247 515.500, 446.646 515.500 C 428.076 515.500, 425.737 514.809, 417.990 507.029 C 412.887 501.905, 399.896 483.191, 396.976 476.756 C 394.645 471.622, 394.478 466.186, 396.500 461.346 C 398.243 457.175, 398.442 453.391, 396.968 452.480 C 395.920 451.833, 371.376 466.553, 367.250 470.303 C 363.744 473.490, 364.398 477.536, 370.286 489.110 C 391.525 530.862, 422.059 554.397, 469.579 565.645 C 480.390 568.204, 483.129 568.459, 499 568.390 C 513.017 568.329, 518.567 567.875, 526.887 566.110 C 558.364 559.432, 584.190 545.091, 606.385 521.967 C 625.598 501.949, 637.353 479.813, 643.173 452.688 C 646.069 439.192, 646.316 412.297, 643.675 398 C 635.375 353.074, 606.949 313.826, 568.086 293.634 C 547.508 282.942, 528.680 278.226, 504 277.580 C 495.475 277.357, 486.925 277.371, 485 277.610 M 225.883 285.341 C 223.228 286.632, 214.012 303.990, 214.005 307.714 C 214.002 309.051, 216.764 313.001, 220.975 317.683 C 224.811 321.949, 229.874 328.969, 232.225 333.285 C 237.768 343.460, 239.340 345.467, 241.203 344.753 C 242.920 344.093, 263.432 310.725, 264.281 307.209 C 265.132 303.684, 261.833 300.882, 248.139 293.498 C 232.491 285.061, 229.053 283.801, 225.883 285.341 M 431.401 308.975 C 427.015 310.748, 390 363.511, 390 367.990 C 390 369.489, 390.983 371.527, 392.250 372.657 C 395.373 375.441, 423.291 391, 425.163 391 C 428.146 391, 430.976 385.619, 435.428 371.479 C 440.175 356.401, 441.462 334.996, 438.488 320.596 C 435.869 307.914, 435.504 307.317, 431.401 308.975 M 524.500 312.657 C 519.050 314.945, 500.178 327.799, 498.978 330.041 C 498.322 331.268, 498.640 336.568, 499.964 346.484 C 501.478 357.810, 502.550 362.389, 504.710 366.749 C 508.131 373.657, 515.631 380.068, 523.147 382.510 C 526.091 383.467, 533.225 386.419, 539 389.071 C 544.775 391.722, 551.750 394.181, 554.500 394.534 C 559.466 395.173, 559.594 395.117, 573.404 386.338 C 590.975 375.169, 591.114 374.925, 588.235 360.304 C 584.627 341.986, 575.729 328.646, 562.905 322.331 C 539.858 310.980, 532.757 309.191, 524.500 312.657 M 208.673 323.750 C 207.255 326.580, 204.583 336.654, 202.909 345.482 C 199.346 364.267, 199.920 398.002, 203.935 405.873 C 205.055 408.068, 206.420 410.141, 206.968 410.480 C 207.891 411.051, 212.557 401.866, 228.127 368.826 L 234.100 356.151 231.473 348.326 C 228.300 338.874, 222.685 327.944, 218.943 323.939 C 215.229 319.963, 210.613 319.879, 208.673 323.750 M 381.273 379.250 C 376.338 384.598, 351.673 427.410, 345.601 441.164 L 343.101 446.829 347.800 449.903 C 352.453 452.946, 352.470 452.977, 349.500 452.994 C 340.502 453.046, 334 458.070, 334 464.970 C 334 467.373, 334.534 468.991, 335.443 469.340 C 336.237 469.644, 341.353 468.153, 346.812 466.025 C 378.695 453.600, 401.136 435.853, 418.170 409.595 C 424.241 400.236, 423.872 399.185, 411.750 391.305 C 388.648 376.286, 385.248 374.941, 381.273 379.250 M 586.796 392.918 C 579.581 396.578, 567.959 404.351, 565.012 407.487 C 563.058 409.568, 562.378 412.722, 559.903 431.193 C 556.092 459.645, 556.109 460.314, 560.824 467.595 C 567.010 477.146, 579.015 487, 584.466 487 C 587.147 487, 609.533 473.343, 612.361 469.983 C 615.593 466.141, 616.479 462.770, 618.531 446.500 C 619.433 439.350, 620.583 431.301, 621.086 428.614 C 622.462 421.257, 622.159 415.940, 620.110 411.500 C 618.048 407.029, 605.236 394.192, 600.300 391.649 C 595.845 389.354, 593.365 389.587, 586.796 392.918 M 710.775 408.918 C 697.603 409.714, 696.673 410.611, 697.063 422.138 C 697.219 426.737, 697.256 432.929, 697.145 435.899 C 696.723 447.189, 700.287 451, 711.268 451 C 714.201 451, 717.140 451.540, 717.800 452.200 C 719.529 453.929, 719.283 462.690, 717 480.712 C 713.027 512.062, 707.282 535.239, 697.448 559.594 C 660.816 650.305, 599.436 713.761, 513.376 749.892 C 502.781 754.340, 480.315 762.058, 461.525 767.704 L 455.549 769.500 442.777 791.365 L 430.005 813.230 435.753 812.530 C 465.818 808.871, 500.163 799.887, 528.500 788.271 C 594.184 761.345, 655.271 710.575, 696.673 648.500 C 730.144 598.315, 749.832 546.189, 757.671 487 C 759.033 476.722, 759.464 466.555, 759.480 444.407 C 759.502 412.469, 759.259 410.983, 753.707 409.048 C 750.584 407.959, 727.773 407.890, 710.775 408.918 M 530 477.463 C 523.675 478.732, 513.581 480.577, 507.569 481.562 C 498.655 483.022, 496.130 483.828, 493.893 485.926 C 491.557 488.117, 479.757 511.890, 477.543 518.865 C 475.264 526.044, 494.366 539.521, 509.705 541.555 C 513.652 542.079, 517.949 541.331, 532.298 537.622 C 542.043 535.103, 551.323 532.367, 552.919 531.542 C 557.379 529.235, 561.552 523.489, 565.603 514.075 C 570.377 502.978, 570.945 498.264, 568.065 493.606 C 565.377 489.255, 552.706 478.193, 548.307 476.355 C 544.234 474.653, 543.909 474.673, 530 477.463 M 3.508 479.992 C 1.232 482.506, 1.781 490.672, 5.533 510.123 C 17.086 570.013, 40.041 622.015, 75.871 669.461 C 126.376 736.341, 205.128 788.474, 280.550 804.956 L 289 806.802 289 804.709 C 289 803.558, 286.777 799.215, 284.061 795.058 C 281.344 790.901, 275.985 781.650, 272.152 774.500 C 268.319 767.350, 264.354 760.508, 263.341 759.296 C 262.329 758.084, 253.625 753.689, 244 749.529 C 202.042 731.396, 168.470 708.443, 135.491 675.342 C 96.309 636.014, 68.075 588.245, 53.133 536 C 50.291 526.066, 43 493.608, 43 490.894 C 43 490.200, 42.080 487.730, 40.955 485.406 C 37.970 479.242, 34.145 478, 18.135 478 C 6.598 478, 5.129 478.200, 3.508 479.992 M 382 479.411 C 382 479.795, 383.318 483.206, 384.928 486.990 C 388.390 495.125, 393.477 503.309, 398.593 508.972 C 402.475 513.268, 410.979 520.400, 409.648 518.242 C 403.723 508.639, 382 478.129, 382 479.411 M 349.500 610.084 C 328.271 612.584, 306.096 623.361, 293.241 637.427 C 282.517 649.160, 273.042 666.523, 268.775 682.257 C 265.592 693.992, 265.652 714.798, 268.903 727 C 274.544 748.177, 283.686 766.667, 302.182 794.318 C 315.710 814.542, 339.287 844.288, 356.130 862.385 L 362.538 869.269 378.960 850.108 C 423.156 798.539, 446.440 761.774, 455.239 729.662 C 457.156 722.666, 457.470 719.072, 457.440 704.500 C 457.407 688.643, 457.217 686.928, 454.614 679 C 445.823 652.222, 424.104 627.443, 400.500 617.260 C 382.901 609.668, 369.293 607.753, 349.500 610.084 M 347.112 651.581 C 333.757 655.172, 318.185 667.647, 312.260 679.500 C 300.996 702.035, 304.877 728.113, 322.009 745.009 C 333.129 755.976, 346.163 761.200, 362.401 761.200 C 377.439 761.200, 390.124 755.876, 401 745 C 411.728 734.272, 417 721.637, 417 706.655 C 417 696.294, 415.521 689.971, 410.766 680 C 401.581 660.740, 383.242 649.933, 360 650.083 C 355.875 650.110, 350.076 650.784, 347.112 651.581 M 349 670.772 C 341.662 673.594, 338.694 675.551, 333.775 680.809 C 325.786 689.351, 322.807 700.059, 324.988 712.400 C 326.545 721.214, 327.961 724.022, 334.153 730.568 C 339.651 736.381, 347.674 740.505, 356.768 742.190 C 376.254 745.802, 396.725 729.464, 398.658 708.755 C 400.042 693.936, 391.414 679.306, 377.250 672.452 C 369.807 668.850, 356.114 668.036, 349 670.772" stroke="none" fill="#fffcfc" fill-rule="evenodd"/><path d="" stroke="none" fill="#fcfcfc" fill-rule="evenodd"/></svg>